<?xml version="1.0" encoding="utf-8"?>
<!-- Generator: Adobe Illustrator 27.5.0, SVG Export Plug-In . SVG Version: 6.00 Build 0)  -->
<svg version="1.1" xmlns="http://www.w3.org/2000/svg" xmlns:xlink="http://www.w3.org/1999/xlink" x="0px" y="0px"
	 viewBox="0 0 2475 1650" style="enable-background:new 0 0 2475 1650;" xml:space="preserve">
<g id="Background">
	<rect style="fill:#FFFFFF;" width="2475" height="1650"/>
</g>
<g id="Illustration">
	<g>
		<linearGradient id="SVGID_1_" gradientUnits="userSpaceOnUse" x1="219.8776" y1="766.5361" x2="2227.499" y2="766.5361">
			<stop  offset="0" style="stop-color:#DAE3FE"/>
			<stop  offset="1" style="stop-color:#E9EFFD"/>
		</linearGradient>
		<path style="fill:url(#SVGID_1_);" d="M533.632,255.066C387.445,392.87,604.72,543.309,502.379,621.861
			c-102.341,78.552-536.427,247.07-72.022,494.804s495.767,380.717,802.933,184.589c307.166-196.128,275.102-176.455,545.04-75.061
			c269.938,101.395,531.943-100.901,424.472-313.661c-107.47-212.761-166.617-206.157-69.35-352.865
			c97.268-146.708-118.088-595.535-464.812-272.732s-275.686,110.943-440.711-34.359
			C1138.582,173.908,764.654,37.291,533.632,255.066z"/>
		<g>
			<path style="fill:#BDD0FB;" d="M601.922,175.437c-48.457,76.672-312.225,534.373,72.814,859.038
				c0,0,251.216-256.62-59.512-858.482C612.506,170.728,605.088,170.428,601.922,175.437z"/>
			<path style="fill:#DCE5FE;" d="M611.6,266.773c-4.523,28.568-8.461,57.265-12.149,85.973
				c-3.674,28.714-7.017,57.471-10.023,86.26c-6.014,57.578-10.742,115.291-13.686,173.087
				c-2.901,57.788-4.122,115.683-2.177,173.46c0.88,28.888,2.807,57.733,5.83,86.431c3.064,28.685,7.263,57.264,13.698,85.303
				l0.004,0.016c0.46,2.004-0.792,4-2.795,4.46c-2.003,0.46-4-0.791-4.46-2.795l-0.005-0.023
				c-6.351-28.479-10.403-57.34-13.312-86.252c-2.866-28.922-4.622-57.929-5.327-86.943c-1.594-58.03-0.009-116.059,3.254-173.942
				c3.308-57.888,8.4-115.649,14.776-173.254c3.188-28.803,6.711-57.568,10.567-86.287c3.869-28.721,7.984-57.394,12.696-86.011
				c0.141-0.859,0.953-1.441,1.812-1.3c0.856,0.141,1.436,0.946,1.301,1.802L611.6,266.773z"/>
		</g>
		<g>
			<path style="fill:#91B3FA;" d="M265.659,259.989c-27.504,111.506-161.061,766.943,431.479,1002.75
				c0,0,199.004-408.864-415.278-1007.409C276.487,250.093,267.456,252.704,265.659,259.989z"/>
			<path style="fill:#DCE5FE;" d="M313.458,365.984c4.329,38.304,10.265,76.491,16.947,114.492
				c6.715,38.008,14.349,75.852,22.918,113.481c17.165,75.24,37.895,149.704,63.427,222.5
				c25.599,72.726,55.923,143.94,93.654,211.113c9.375,16.818,19.387,33.268,29.805,49.44
				c10.398,16.188,21.414,31.971,33.011,47.299c23.071,30.749,48.794,59.487,77.089,85.385l0.024,0.022
				c1.516,1.388,1.62,3.742,0.233,5.258c-1.388,1.516-3.742,1.62-5.258,0.233l-0.013-0.012
				c-28.577-26.398-54.453-55.594-77.598-86.738c-11.635-15.528-22.669-31.496-33.071-47.855
				c-10.423-16.344-20.427-32.955-29.782-49.921c-37.652-67.769-67.755-139.409-93.098-212.48
				c-25.273-73.138-45.699-147.859-62.547-223.315c-8.41-37.736-15.881-75.677-22.43-113.775
				c-6.518-38.109-12.28-76.326-16.45-114.81c-0.094-0.866,0.532-1.643,1.397-1.737c0.866-0.094,1.643,0.532,1.737,1.397
				L313.458,365.984z"/>
		</g>
		<g>
			<path style="fill:#BDD0FB;" d="M197.669,872.115c5.499,58.353,50.285,396.138,350.282,398.776
				c0,0,23.332-232.183-343.841-404.008C200.897,865.38,197.309,868.303,197.669,872.115z"/>
			<path style="fill:#DCE5FE;" d="M236.429,913.573c7.874,16.643,16.41,33.042,25.176,49.273
				c8.783,16.231,17.935,32.262,27.395,48.104c9.476,15.833,19.296,31.456,29.46,46.846c10.157,15.394,20.657,30.56,31.635,45.367
				c10.962,14.814,22.236,29.402,34.138,43.452c11.881,14.059,24.1,27.846,37.1,40.845c3.173,3.328,6.492,6.504,9.814,9.675
				c3.339,3.153,6.557,6.438,10.026,9.445l10.251,9.189l10.581,8.788c14.272,11.498,29.21,22.141,44.942,31.414l0.043,0.026
				c1.771,1.044,2.36,3.326,1.316,5.096c-1.044,1.771-3.326,2.36-5.096,1.316l-0.034-0.02
				c-32.065-19.366-60.577-43.791-86.395-70.472c-13.013-13.268-25.201-27.291-37.034-41.572
				c-11.854-14.271-23.054-29.058-33.932-44.059c-10.892-14.993-21.293-30.331-31.342-45.886
				c-10.056-15.551-19.758-31.325-29.111-47.301c-9.337-15.985-18.359-32.15-27.01-48.512c-8.64-16.375-17.02-32.857-24.792-49.705
				c-0.365-0.791-0.02-1.727,0.771-2.092c0.786-0.362,1.715-0.024,2.085,0.756L236.429,913.573z"/>
		</g>
		<g>
			<path style="fill:#91B3FA;" d="M2227.503,799.982c14.186,70.34,80.024,483.046-296.156,614.391
				c0,0-113.286-260.542,286.167-617.733C2221.009,793.515,2226.576,795.386,2227.503,799.982z"/>
			<path style="fill:#DCE5FE;" d="M2197.367,865.232c-3.595,23.947-8.212,47.649-13.257,71.286
				c-5.069,23.626-10.715,47.129-16.953,70.478c-6.237,23.349-13.065,46.544-20.502,69.549c-1.904,5.736-3.692,11.512-5.693,17.217
				l-5.94,17.136c-4.171,11.35-8.253,22.736-12.769,33.959c-4.318,11.301-9.126,22.408-13.824,33.558l-7.425,16.567
				c-2.422,5.547-5.189,10.937-7.768,16.413c-10.572,21.779-21.907,43.233-34.695,63.848l-4.728,7.769l-5.005,7.6l-5.006,7.6
				l-2.503,3.8l-2.656,3.698l-10.65,14.778l-11.303,14.302c-15.417,18.791-32.251,36.497-50.815,52.362
				c-1.563,1.335-3.912,1.151-5.247-0.411c-1.335-1.563-1.151-3.912,0.411-5.247l0.021-0.017l0.042-0.035
				c18.262-15.38,34.926-32.638,50.25-51.034l11.247-14.014l10.621-14.512l2.651-3.632l2.502-3.739l5.005-7.479l5.006-7.479
				l4.737-7.657c12.811-20.313,24.215-41.512,34.873-63.062c2.601-5.421,5.389-10.752,7.837-16.247l7.501-16.411
				c4.753-11.052,9.618-22.062,13.997-33.276c4.577-11.134,8.724-22.438,12.961-33.708l6.042-17.022
				c2.035-5.667,3.858-11.408,5.798-17.109c7.579-22.864,14.557-45.934,20.948-69.169c6.391-23.235,12.197-46.635,17.427-70.163
				c5.203-23.523,9.993-47.187,13.74-70.947l0.005-0.03c0.135-0.86,0.943-1.448,1.803-1.312
				C2196.909,863.576,2197.495,864.377,2197.367,865.232z"/>
		</g>
		<g>
			<path style="fill:#BDD0FB;" d="M2286.567,1142.986c-11.194,50.324-87.298,340.213-349.405,309.638
				c0,0,5.082-205.191,344.357-314.91C2284.487,1136.754,2287.298,1139.698,2286.567,1142.986z"/>
			<path style="fill:#DCE5FE;" d="M2250.717,1176.477c-8.625,13.865-17.736,27.337-27.064,40.691
				c-9.336,13.341-18.975,26.469-28.869,39.406c-9.907,12.927-20.097,25.64-30.572,38.12
				c-10.469,12.484-21.222,24.741-32.368,36.645c-11.133,11.911-22.525,23.601-34.434,34.771
				c-11.891,11.18-24.064,22.097-36.878,32.266c-25.461,20.487-53.035,38.717-83.184,52.146c-1.878,0.836-4.078-0.008-4.914-1.885
				c-0.836-1.878,0.008-4.078,1.885-4.914c0.006-0.003,0.012-0.005,0.019-0.008l0.068-0.03
				c29.456-12.733,56.794-30.332,82.165-50.299c12.768-9.904,24.942-20.583,36.853-31.537
				c11.928-10.944,23.369-22.427,34.563-34.143c11.207-11.707,22.038-23.782,32.594-36.093
				c10.562-12.307,20.85-24.856,30.862-37.626c9.998-12.78,19.749-25.758,29.2-38.952c9.436-13.195,18.691-26.565,27.391-40.214
				l0.015-0.023c0.468-0.734,1.442-0.95,2.177-0.482C2250.955,1174.78,2251.172,1175.745,2250.717,1176.477z"/>
		</g>
		<g>
			<g>
				<g>
					
						<linearGradient id="SVGID_00000148659692958769886640000000698768075017866419_" gradientUnits="userSpaceOnUse" x1="360.4577" y1="1087.3416" x2="865.3978" y2="1087.3416">
						<stop  offset="0" style="stop-color:#DAE3FE"/>
						<stop  offset="1" style="stop-color:#E9EFFD"/>
					</linearGradient>
					<path style="fill:url(#SVGID_00000148659692958769886640000000698768075017866419_);" d="M360.458,1130.6l504.94,0v-86.518
						l-504.94,0.001C371.265,1044.083,371.265,1130.6,360.458,1130.6z"/>
					<path style="fill:#7D97F4;" d="M865.398,1108.95v-39.594c0-13.958-9.979-25.272-22.288-25.272H362.587
						c-9.68,0-17.527-6.718-17.527-15.005c0-2.518,2.384-4.559,5.326-4.559H875.56c12.044,0,31.166,16.21,31.166,36.207v55.298
						c0,18.854-18.564,34.138-29.919,34.138H353.148c-4.467,0-8.088-3.1-8.088-6.924c0-6.98,6.61-12.639,14.764-12.639h486.481
						C856.85,1130.6,865.398,1120.907,865.398,1108.95z"/>
				</g>
				<path style="fill:#91B3FA;" d="M851.394,1063.696h-473.45c-1.028,0-1.861-0.833-1.861-1.861c0-1.028,0.833-1.861,1.861-1.861
					h473.45c1.028,0,1.861,0.833,1.861,1.861C853.255,1062.863,852.422,1063.696,851.394,1063.696z"/>
				<path style="fill:#91B3FA;" d="M851.394,1076.537h-473.45c-1.028,0-1.861-0.833-1.861-1.861c0-1.028,0.833-1.861,1.861-1.861
					h473.45c1.028,0,1.861,0.833,1.861,1.861C853.255,1075.704,852.422,1076.537,851.394,1076.537z"/>
				<path style="fill:#91B3FA;" d="M851.394,1089.38h-473.45c-1.028,0-1.861-0.833-1.861-1.861c0-1.028,0.833-1.861,1.861-1.861
					h473.45c1.028,0,1.861,0.833,1.861,1.861C853.255,1088.547,852.422,1089.38,851.394,1089.38z"/>
				<path style="fill:#91B3FA;" d="M851.394,1102.221h-473.45c-1.028,0-1.861-0.833-1.861-1.861c0-1.028,0.833-1.861,1.861-1.861
					h473.45c1.028,0,1.861,0.833,1.861,1.861C853.255,1101.388,852.422,1102.221,851.394,1102.221z"/>
				<path style="fill:#91B3FA;" d="M851.394,1115.064h-473.45c-1.028,0-1.861-0.833-1.861-1.861c0-1.028,0.833-1.861,1.861-1.861
					h473.45c1.028,0,1.861,0.833,1.861,1.861C853.255,1114.23,852.422,1115.064,851.394,1115.064z"/>
			</g>
			<g>
				<path style="fill:#7D97F4;" d="M977.716,1486.882H216.267c-11.098,0-20.095-8.997-20.095-20.095v-128.995
					c0-11.098,8.997-20.095,20.095-20.095h761.449c11.098,0,20.095,8.997,20.095,20.095v128.995
					C997.811,1477.885,988.814,1486.882,977.716,1486.882z"/>
				<path style="fill:#91B3FA;" d="M373.701,1467.438H294.01c-4,0-7.242-3.242-7.242-7.242v-115.813c0-4,3.242-7.242,7.242-7.242
					h79.691c4,0,7.242,3.242,7.242,7.242v115.813C380.943,1464.196,377.701,1467.438,373.701,1467.438z"/>
			</g>
			<g>
				<path style="fill:#91B3FA;" d="M933.921,1159.567v29.138c0,5.002-2.607,9.756-7.145,13.029l-4.484,3.234
					c-3.682,2.655-2.908,7.583,1.47,9.36l0,0c2.889,1.172,3.428,4.414,1.029,6.196l-5.651,4.2
					c-3.697,2.748-3.705,7.565-0.017,10.321l4.056,3.031c3.501,2.616,3.4,7.212-0.214,9.719l-4.358,3.024
					c-3.025,2.099-3.531,5.811-1.148,8.422l2.4,2.63c1.719,1.884,2.651,4.187,2.651,6.554v46.012H331.395v-157.639L933.921,1159.567
					z"/>
				
					<linearGradient id="SVGID_00000070801089970043721230000002656313640832480691_" gradientUnits="userSpaceOnUse" x1="349.6569" y1="1191.4589" x2="915.4128" y2="1191.4589">
					<stop  offset="0" style="stop-color:#DAE3FE"/>
					<stop  offset="1" style="stop-color:#E9EFFD"/>
				</linearGradient>
				<path style="fill:url(#SVGID_00000070801089970043721230000002656313640832480691_);" d="M351.871,1193.305h561.327
					c1.224,0,2.214-0.826,2.214-1.846c0-1.02-0.99-1.846-2.214-1.846H351.871c-1.224,0-2.214,0.825-2.214,1.846
					C349.657,1192.479,350.647,1193.305,351.871,1193.305z"/>
				
					<linearGradient id="SVGID_00000150799976252069141170000008339677131235523225_" gradientUnits="userSpaceOnUse" x1="349.6569" y1="1218.9017" x2="902.1285" y2="1218.9017">
					<stop  offset="0" style="stop-color:#DAE3FE"/>
					<stop  offset="1" style="stop-color:#E9EFFD"/>
				</linearGradient>
				<path style="fill:url(#SVGID_00000150799976252069141170000008339677131235523225_);" d="M351.871,1220.748h548.043
					c1.224,0,2.214-0.826,2.214-1.846c0-1.02-0.99-1.846-2.214-1.846H351.871c-1.224,0-2.214,0.826-2.214,1.846
					C349.657,1219.922,350.647,1220.748,351.871,1220.748z"/>
				
					<linearGradient id="SVGID_00000082340251380759886940000016872394465288461717_" gradientUnits="userSpaceOnUse" x1="349.6569" y1="1239.1006" x2="895.3144" y2="1239.1006">
					<stop  offset="0" style="stop-color:#DAE3FE"/>
					<stop  offset="1" style="stop-color:#E9EFFD"/>
				</linearGradient>
				<path style="fill:url(#SVGID_00000082340251380759886940000016872394465288461717_);" d="M351.871,1240.947H893.1
					c1.224,0,2.214-0.826,2.214-1.846c0-1.02-0.99-1.846-2.214-1.846H351.871c-1.224,0-2.214,0.826-2.214,1.846
					C349.657,1240.121,350.647,1240.947,351.871,1240.947z"/>
				
					<linearGradient id="SVGID_00000127730018283214045160000015638381548927287741_" gradientUnits="userSpaceOnUse" x1="-5089.625" y1="1235.1433" x2="-4420.0151" y2="1235.1433" gradientTransform="matrix(-1 0 0 1 -4133.2471 0)">
					<stop  offset="0" style="stop-color:#4042E2"/>
					<stop  offset="1" style="stop-color:#4F52FF"/>
				</linearGradient>
				<path style="fill:url(#SVGID_00000127730018283214045160000015638381548927287741_);" d="M320.674,1146.747h626.178
					c4.771,0,9.031,2.907,9.483,6.865c0.52,4.541-3.75,8.362-9.091,8.362H366.62c-10.197,0-19.008,5.951-21.127,14.265
					c-9.495,37.255-8.777,76.043,0.169,116.064c2.075,9.281,11.814,16.01,23.14,16.01h566.576c4.771,0,9.031,2.907,9.484,6.865
					c0.52,4.541-3.75,8.362-9.091,8.362H324.822c-14.606,0-27.186-8.691-29.789-20.671c-10.551-48.552-11.475-95.154-0.008-139.244
					c2.57-9.883,13.176-16.878,25.308-16.878H320.674z"/>
			</g>
		</g>
		<g>
			<g>
				
					<linearGradient id="SVGID_00000027567644005608717820000010787420279742706612_" gradientUnits="userSpaceOnUse" x1="1221.1143" y1="1403.361" x2="1344.1257" y2="353.2568">
					<stop  offset="0" style="stop-color:#09005D"/>
					<stop  offset="1" style="stop-color:#1A0F91"/>
				</linearGradient>
				<path style="fill:url(#SVGID_00000027567644005608717820000010787420279742706612_);" d="M2012.895,1385.657
					c0,15.624-11.75,28.407-26.111,28.407H574.804c-14.361,0-26.111-12.783-26.111-28.407l-11.749-883.62
					c0-15.624,16.904-46.126,47.882-43.833l1379.942-38.883c18.019-0.508,35.441,7.045,48.201,20.895
					c12.76,13.85,19.742,32.787,19.316,52.391L2012.895,1385.657z"/>
				
					<linearGradient id="SVGID_00000095332207732478493770000010118538756811304625_" gradientUnits="userSpaceOnUse" x1="1918.053" y1="221.3364" x2="11.9795" y2="2398.3965">
					<stop  offset="0" style="stop-color:#4042E2"/>
					<stop  offset="1" style="stop-color:#4F52FF"/>
				</linearGradient>
				<path style="fill:url(#SVGID_00000095332207732478493770000010118538756811304625_);" d="M1987.116,1358.404
					c0,14.795-11.116,26.9-24.703,26.9H608.855c-13.587,0-24.703-12.105-24.703-26.9l-11.087-802.158
					c1.306-48.272,40.169-65.621,63.727-64.597c0,0,1078.551-31.51,1322.549-38.639c12.659-0.37,24.899,4.941,33.865,14.68
					c8.966,9.739,13.897,23.066,13.58,36.853L1987.116,1358.404z"/>
				<g>
					
						<linearGradient id="SVGID_00000016047093135830539800000010931023654843370681_" gradientUnits="userSpaceOnUse" x1="596.0427" y1="940.8517" x2="600.6415" y2="940.8517">
						<stop  offset="0" style="stop-color:#DAE3FE"/>
						<stop  offset="1" style="stop-color:#E9EFFD"/>
					</linearGradient>
					<path style="fill:url(#SVGID_00000016047093135830539800000010931023654843370681_);" d="M598.78,975.24
						c-1.016,0-1.846-0.817-1.86-1.835l-0.877-65.055c-0.014-1.028,0.808-1.873,1.835-1.886c1.015-0.036,1.872,0.808,1.886,1.835
						l0.877,65.055c0.014,1.028-0.808,1.873-1.835,1.886C598.797,975.24,598.789,975.24,598.78,975.24z"/>
					
						<linearGradient id="SVGID_00000148622698012252235800000013422356849622881924_" gradientUnits="userSpaceOnUse" x1="591.4098" y1="656.2581" x2="1073.6409" y2="656.2581">
						<stop  offset="0" style="stop-color:#DAE3FE"/>
						<stop  offset="1" style="stop-color:#E9EFFD"/>
					</linearGradient>
					<path style="fill:url(#SVGID_00000148622698012252235800000013422356849622881924_);" d="M596.63,815.824
						c-1.016,0-1.846-0.817-1.86-1.835l-3.36-249.155c0.073-17.364,5.226-31.04,15.319-40.683
						c16.75-15.999,41.612-15.152,42.649-15.115l422.347-12.343c1.078-0.048,1.885,0.779,1.915,1.805
						c0.03,1.028-0.779,1.884-1.806,1.914l-422.464,12.343c-1.138-0.044-24.454-0.834-40.071,14.086
						c-9.333,8.916-14.1,21.692-14.168,37.974l3.36,249.121c0.014,1.028-0.808,1.873-1.835,1.886
						C596.647,815.824,596.639,815.824,596.63,815.824z"/>
				</g>
				<g style="opacity:0.58;">
					<path style="fill:#7D97F4;" d="M643.785,1313.904c1.417-66.299,0.889-653.396-2.604-704.1
						c-3.493-50.705,69.023-60.215,180.359-65.921c111.335-5.706,1050.713-28.298,1074.9-30.433
						c54.367-4.801,65.62,83.691,60.181,275.8c-4.086,144.33-10.859,382.088-13.975,491.427
						c-0.928,32.557-25.363,58.388-55.274,58.477c-226.053,0.676-1092.447,3.38-1150.124,5.251
						C670.875,1346.557,643.223,1340.193,643.785,1313.904z"/>
				</g>
			</g>
			
				<linearGradient id="SVGID_00000091728831402221149550000004019463988449492365_" gradientUnits="userSpaceOnUse" x1="1284.4708" y1="1050.8051" x2="1299.4722" y2="1611.8606">
				<stop  offset="0" style="stop-color:#09005D"/>
				<stop  offset="1" style="stop-color:#1A0F91"/>
			</linearGradient>
			<path style="fill:url(#SVGID_00000091728831402221149550000004019463988449492365_);" d="M2119.936,1487.415H470.278
				c-4.128,0-7.505-3.377-7.505-7.505v-62.628c0-4.128,3.377-7.505,7.505-7.505h1649.657c4.128,0,7.505,3.377,7.505,7.505v62.628
				C2127.441,1484.038,2124.063,1487.415,2119.936,1487.415z"/>
			<g>
				
					<linearGradient id="SVGID_00000025414385454908087750000013123819037916267446_" gradientUnits="userSpaceOnUse" x1="730.0619" y1="915.794" x2="1871.3684" y2="915.794">
					<stop  offset="0" style="stop-color:#DAE3FE"/>
					<stop  offset="1" style="stop-color:#E9EFFD"/>
				</linearGradient>
				<path style="fill:url(#SVGID_00000025414385454908087750000013123819037916267446_);" d="M1842.797,1233.822H757.938
					c-15.632,0-27.877-12.932-27.877-29.441V647.242c0-16.139,12.16-29.007,27.684-29.297l1084.708-20.176
					c7.61-0.114,14.864,2.844,20.372,8.409c5.428,5.488,8.542,13.102,8.542,20.887v577.314
					C1871.368,1220.614,1858.551,1233.822,1842.797,1233.822z M757.815,621.667c-13.476,0.251-24.031,11.485-24.031,25.575v557.138
					c0,14.422,10.61,25.719,24.155,25.719h1084.858c13.702,0,24.85-11.538,24.85-25.719V627.066c0-6.814-2.721-13.473-7.466-18.27
					c-4.784-4.834-11.031-7.395-17.657-7.305L757.815,621.667z"/>
				
					<linearGradient id="SVGID_00000094590162701265698430000000289126897571808417_" gradientUnits="userSpaceOnUse" x1="1286.1167" y1="805.0728" x2="311.1454" y2="1383.3311">
					<stop  offset="0" style="stop-color:#4042E2"/>
					<stop  offset="1" style="stop-color:#4F52FF"/>
				</linearGradient>
				<path style="fill:url(#SVGID_00000094590162701265698430000000289126897571808417_);" d="M1453.892,717.238
					c0-11.522-9.341-20.863-20.863-20.863H797.775c-11.523,0-20.863,9.341-20.863,20.863v378.173
					c0,11.522,9.341,20.863,20.863,20.863h635.254c11.523,0,20.863-9.341,20.863-20.863V717.238z"/>
				<g>
					
						<linearGradient id="SVGID_00000165194834143263186600000011357231276394830520_" gradientUnits="userSpaceOnUse" x1="1499.1632" y1="764.9293" x2="1785.6746" y2="764.9293">
						<stop  offset="0" style="stop-color:#DAE3FE"/>
						<stop  offset="1" style="stop-color:#E9EFFD"/>
					</linearGradient>
					<path style="fill:url(#SVGID_00000165194834143263186600000011357231276394830520_);" d="M1755.947,835.345h-230.075
						c-14.977,0-26.709-11.793-26.709-26.849v-87.549c0-14.823,11.732-26.435,26.709-26.435h230.075
						c15.836,0,29.727,12.353,29.727,26.435v87.549C1785.675,822.799,1771.783,835.345,1755.947,835.345z M1525.872,698.235
						c-13.105,0-22.987,9.764-22.987,22.713v87.549c0,11.369,8.598,23.127,22.987,23.127h230.075
						c13.61,0,26.006-11.023,26.006-23.127v-87.549c0-12.099-12.152-22.713-26.006-22.713H1525.872z"/>
					
						<linearGradient id="SVGID_00000003084422032062709090000016914343426214456243_" gradientUnits="userSpaceOnUse" x1="1499.1632" y1="940.6014" x2="1785.6746" y2="940.6014">
						<stop  offset="0" style="stop-color:#DAE3FE"/>
						<stop  offset="1" style="stop-color:#E9EFFD"/>
					</linearGradient>
					<path style="fill:url(#SVGID_00000003084422032062709090000016914343426214456243_);" d="M1755.947,1011.017h-230.075
						c-15.227,0-26.709-11.201-26.709-26.056v-87.548c0-17.043,13.58-27.228,26.709-27.228h230.075
						c15.558,0,29.727,12.978,29.727,27.228v87.548C1785.675,999.085,1772.061,1011.017,1755.947,1011.017z M1525.872,873.907
						c-14.389,0-22.987,11.951-22.987,23.506v87.548c0,12.732,9.882,22.334,22.987,22.334h230.075
						c13.854,0,26.006-10.436,26.006-22.334v-87.548c0-12.302-12.396-23.506-26.006-23.506H1525.872z"/>
					
						<linearGradient id="SVGID_00000108292721970278271880000007493767419219310776_" gradientUnits="userSpaceOnUse" x1="1499.1632" y1="1116.2736" x2="1785.6746" y2="1116.2736">
						<stop  offset="0" style="stop-color:#DAE3FE"/>
						<stop  offset="1" style="stop-color:#E9EFFD"/>
					</linearGradient>
					<path style="fill:url(#SVGID_00000108292721970278271880000007493767419219310776_);" d="M1755.947,1186.689h-230.075
						c-15.477,0-26.709-10.625-26.709-25.263v-87.548c0-13.476,10.211-28.02,26.709-28.02h230.075
						c15.558,0,29.727,13.355,29.727,28.02v87.548C1785.675,1175.356,1772.339,1186.689,1755.947,1186.689z M1525.872,1049.579
						c-14.199,0-22.987,12.613-22.987,24.298v87.548c0,12.482,9.668,21.542,22.987,21.542h230.075
						c14.096,0,26.006-9.865,26.006-21.542v-87.548c0-12.49-12.638-24.298-26.006-24.298H1525.872z"/>
				</g>
				<path style="fill:#BDD0FB;" d="M1213.182,1143.796c-64.755-0.159-358.277-0.835-423.166-0.227
					c-6.982,0.066-13.105,5.737-13.105,12.719v7.103c0,6.913,5.556,12.561,12.468,12.72l422.532,9.7
					c3.424,0.078,7.674-1.227,10.124-3.62c2.449-2.395,4.769-5.675,4.769-9.1v-16.574
					C1226.804,1149.503,1220.196,1143.813,1213.182,1143.796z"/>
				
					<linearGradient id="SVGID_00000073687592754350517840000014912772645389772698_" gradientUnits="userSpaceOnUse" x1="730.0619" y1="657.8124" x2="1871.3684" y2="657.8124">
					<stop  offset="0" style="stop-color:#DAE3FE"/>
					<stop  offset="1" style="stop-color:#E9EFFD"/>
				</linearGradient>
				<path style="fill:url(#SVGID_00000073687592754350517840000014912772645389772698_);" d="M1869.508,659.673H731.923
					c-1.028,0-1.861-0.833-1.861-1.861s0.833-1.861,1.861-1.861h1137.585c1.028,0,1.861,0.833,1.861,1.861
					S1870.535,659.673,1869.508,659.673z"/>
				<path style="fill:#FFFFFF;" d="M1732.253,642.535h-1.854c-7.012,0-12.717-5.705-12.717-12.717v-1.853
					c0-7.012,5.705-12.717,12.717-12.717h1.854c7.012,0,12.717,5.705,12.717,12.717v1.853
					C1744.97,636.83,1739.265,642.535,1732.253,642.535z M1730.399,618.969c-4.96,0-8.995,4.035-8.995,8.995v1.853
					c0,4.96,4.035,8.995,8.995,8.995h1.854c4.96,0,8.995-4.035,8.995-8.995v-1.853c0-4.96-4.035-8.995-8.995-8.995H1730.399z"/>
				<path style="fill:#FFFFFF;" d="M1781.527,642.535h-1.854c-7.012,0-12.717-5.705-12.717-12.717v-1.853
					c0-7.012,5.705-12.717,12.717-12.717h1.854c7.012,0,12.717,5.705,12.717,12.717v1.853
					C1794.244,636.83,1788.538,642.535,1781.527,642.535z M1779.673,618.969c-4.96,0-8.995,4.035-8.995,8.995v1.853
					c0,4.96,4.035,8.995,8.995,8.995h1.854c4.96,0,8.995-4.035,8.995-8.995v-1.853c0-4.96-4.035-8.995-8.995-8.995H1779.673z"/>
				<path style="fill:#FFFFFF;" d="M1832.943,642.535h-1.854c-7.012,0-12.717-5.705-12.717-12.717v-1.853
					c0-7.012,5.705-12.717,12.717-12.717h1.854c7.012,0,12.717,5.705,12.717,12.717v1.853
					C1845.66,636.83,1839.955,642.535,1832.943,642.535z M1831.089,618.969c-4.96,0-8.995,4.035-8.995,8.995v1.853
					c0,4.96,4.035,8.995,8.995,8.995h1.854c4.96,0,8.995-4.035,8.995-8.995v-1.853c0-4.96-4.035-8.995-8.995-8.995H1831.089z"/>
				<g>
					
						<linearGradient id="SVGID_00000031206430926501820890000014113849412128558526_" gradientUnits="userSpaceOnUse" x1="1306.1265" y1="1031.9216" x2="1432.1877" y2="1031.9216">
						<stop  offset="0" style="stop-color:#DAE3FE"/>
						<stop  offset="1" style="stop-color:#E9EFFD"/>
					</linearGradient>
					<path style="fill:url(#SVGID_00000031206430926501820890000014113849412128558526_);" d="M1369.19,1094.952
						c-34.804,0-63.064-28.26-63.064-62.997c0-34.804,28.26-63.065,62.997-63.065c34.804,0,63.065,28.261,63.065,62.998v0.067
						C1432.188,1066.692,1403.927,1094.952,1369.19,1094.952z M1369.19,972.613c-32.751,0-59.342,26.591-59.342,59.276
						c0,32.751,26.591,59.342,59.275,59.342c32.752,0,59.343-26.591,59.343-59.275v-0.067
						C1428.466,999.203,1401.875,972.613,1369.19,972.613z"/>
					
						<linearGradient id="SVGID_00000109710339764085859010000007503031747770768768_" gradientUnits="userSpaceOnUse" x1="1347.0269" y1="1031.4686" x2="1412.505" y2="1031.4686">
						<stop  offset="0" style="stop-color:#DAE3FE"/>
						<stop  offset="1" style="stop-color:#E9EFFD"/>
					</linearGradient>
					<path style="fill:url(#SVGID_00000109710339764085859010000007503031747770768768_);" d="M1351.779,1063.58
						c-1.761,0-3.213-1.404-3.26-3.175l-1.49-55.647c-0.049-1.835,0.839-3.53,2.373-4.535c1.534-1.006,3.442-1.144,5.106-0.366
						l54.969,25.71c1.814,0.848,2.974,2.618,3.027,4.621c0.052,2.002-1.012,3.832-2.78,4.775l-48.522,25.867
						c-1.592,0.848-3.567,0.245-4.414-1.344c-0.849-1.59-0.246-3.566,1.344-4.414l46.278-24.672l-50.802-23.76l1.435,53.589
						c0.048,1.802-1.373,3.301-3.174,3.349C1351.838,1063.58,1351.809,1063.58,1351.779,1063.58z"/>
				</g>
				<g>
					
						<linearGradient id="SVGID_00000147914659474202602510000001081681637903529906_" gradientUnits="userSpaceOnUse" x1="4892.5571" y1="1466.6223" x2="5223.9736" y2="1627.811" gradientTransform="matrix(-0.9535 -0.3012 -0.3012 0.9535 6390.7007 1016.2379)">
						<stop  offset="0" style="stop-color:#FE7062"/>
						<stop  offset="1" style="stop-color:#FF928E"/>
					</linearGradient>
					<path style="fill:url(#SVGID_00000147914659474202602510000001081681637903529906_);" d="M1077.633,955.627
						c20.999-55.046,78.993-85.569,132.755-68.585c5.77,1.823,11.261,4.129,16.457,6.851c18.052,21.46,25.089,51.4,16.016,80.12
						c-14.096,44.621-61.696,69.366-106.318,55.27C1102.811,1018.625,1080.452,988.817,1077.633,955.627z"/>
					
						<linearGradient id="SVGID_00000052066204464514509820000003054825921057667506_" gradientUnits="userSpaceOnUse" x1="1304.4471" y1="650.5948" x2="1036.436" y2="938.0578">
						<stop  offset="0" style="stop-color:#E1473D"/>
						<stop  offset="1" style="stop-color:#E9605A"/>
					</linearGradient>
					
						<circle style="fill:url(#SVGID_00000052066204464514509820000003054825921057667506_);" cx="1119.37" cy="849.105" r="124.035"/>
					
						<linearGradient id="SVGID_00000135672618998407172850000002955175197307354530_" gradientUnits="userSpaceOnUse" x1="1068.726" y1="844.4927" x2="1226.9023" y2="844.4927">
						<stop  offset="0" style="stop-color:#FE7062"/>
						<stop  offset="1" style="stop-color:#FF928E"/>
					</linearGradient>
					<path style="fill:url(#SVGID_00000135672618998407172850000002955175197307354530_);" d="M1092.408,770.397
						c48.811,26.718,66.424,88.487,39.34,137.965c-7.893,14.421-18.717,26.2-31.294,35c43.551,10.897,90.894-8.762,113.736-50.493
						c27.083-49.478,9.47-111.247-39.34-137.966c-34.584-18.931-75.548-15.18-106.124,6.211
						C1076.811,763.138,1084.765,766.213,1092.408,770.397z"/>
					
						<linearGradient id="SVGID_00000170987522945181573610000008617651992460422284_" gradientUnits="userSpaceOnUse" x1="1244.4689" y1="2753.0142" x2="1575.8585" y2="2914.1899" gradientTransform="matrix(0.5987 0.801 -0.801 0.5987 2440.7856 -1920.9819)">
						<stop  offset="0" style="stop-color:#FE7062"/>
						<stop  offset="1" style="stop-color:#FF928E"/>
					</linearGradient>
					<path style="fill:url(#SVGID_00000170987522945181573610000008617651992460422284_);" d="M1034.884,923.622
						c45.049-37.968,54.754-102.782,21-147.942c-3.623-4.847-7.609-9.271-11.892-13.28c-26.211-9.97-56.797-6.746-80.922,11.285
						c-37.482,28.015-45.157,81.111-17.142,118.593C967.107,920.614,1002.618,931.899,1034.884,923.622z"/>
					<path style="opacity:0.31;fill:#FFFFFF;" d="M1042.843,775.57c5.106,6.757,11.265,17.079,14.203,30.274
						c2.176,9.772-5.95,18.73-15.907,17.692c-25.27-2.636-69.97-1.297-78.687,39.053c-1.407,6.514-10.619,6.806-12.508,0.415
						c-9.229-31.234-7.318-90.417,73.882-96.094C1031.21,766.394,1038.381,769.665,1042.843,775.57z"/>
					<path style="opacity:0.68;fill:#FFFFFF;" d="M1168.023,1019.358c-0.83,0-1.587-0.558-1.802-1.399
						c-0.255-0.995,0.345-2.009,1.341-2.264c32.482-8.322,52.806-25.909,60.408-52.274c5.676-19.685,1.769-37.085,1.729-37.258
						c-0.232-1.001,0.392-2.001,1.393-2.232c0.999-0.234,2,0.392,2.232,1.393c0.169,0.731,15.962,73.276-64.839,93.977
						C1168.331,1019.339,1168.176,1019.358,1168.023,1019.358z"/>
				</g>
				<g style="opacity:0.78;">
					<path style="fill:#BDD0FB;" d="M1172.875,868.695c0.868,0,1.737-0.319,2.417-0.963l47.724-45.206
						c4.151-3.931,9.585-6.096,15.301-6.096h162.438c1.941,0,3.515-1.573,3.515-3.515c0-1.941-1.574-3.515-3.515-3.515h-162.438
						c-7.523,0-14.674,2.849-20.136,8.022l-47.724,45.206c-1.409,1.335-1.47,3.56-0.135,4.969
						C1171.013,868.327,1171.943,868.695,1172.875,868.695z"/>
					<path style="fill:#BDD0FB;" d="M1263.259,794.631h137.497c1.941,0,3.515-1.574,3.515-3.515s-1.574-3.515-3.515-3.515h-137.497
						c-1.941,0-3.515,1.574-3.515,3.515S1261.318,794.631,1263.259,794.631z"/>
					<path style="fill:#BDD0FB;" d="M1285.63,772.832h115.125c1.941,0,3.515-1.574,3.515-3.515c0-1.942-1.574-3.515-3.515-3.515
						H1285.63c-1.941,0-3.515,1.573-3.515,3.515C1282.115,771.258,1283.689,772.832,1285.63,772.832z"/>
				</g>
				<g style="opacity:0.78;">
					<path style="fill:#BDD0FB;" d="M1080.35,937.783c-0.943,0-1.887,0.347-2.626,1.046l-51.859,49.122
						c-4.51,4.272-10.415,6.624-16.627,6.624h-176.51c-2.109,0-3.819,1.71-3.819,3.819c0,2.109,1.71,3.819,3.819,3.819h176.51
						c8.174,0,15.945-3.096,21.88-8.717l51.859-49.122c1.531-1.45,1.597-3.868,0.146-5.399
						C1082.373,938.183,1081.362,937.783,1080.35,937.783z"/>
					<path style="fill:#BDD0FB;" d="M982.136,1018.264H832.728c-2.109,0-3.819,1.71-3.819,3.819c0,2.11,1.71,3.82,3.819,3.82
						h149.408c2.109,0,3.819-1.71,3.819-3.82C985.956,1019.973,984.246,1018.264,982.136,1018.264z"/>
					<path style="fill:#BDD0FB;" d="M957.826,1041.951H832.728c-2.109,0-3.819,1.71-3.819,3.819c0,2.11,1.71,3.82,3.819,3.82
						h125.098c2.11,0,3.819-1.71,3.819-3.82C961.646,1043.661,959.936,1041.951,957.826,1041.951z"/>
				</g>
			</g>
		</g>
		<g>
			
				<linearGradient id="SVGID_00000057134141196641570040000007490676397970451095_" gradientUnits="userSpaceOnUse" x1="1839.0779" y1="336.1624" x2="1740.0685" y2="822.2101">
				<stop  offset="0" style="stop-color:#09005D"/>
				<stop  offset="1" style="stop-color:#1A0F91"/>
			</linearGradient>
			<path style="fill:url(#SVGID_00000057134141196641570040000007490676397970451095_);" d="M1582.554,321.822L1532.6,431.204
				c0,0,27.673,182.748,220.205,253.973c192.532,71.225,278.21-21.321,278.21-21.321l61.269-161.223L1582.554,321.822z"/>
			
				<linearGradient id="SVGID_00000152231363062964227320000014381966271884702611_" gradientUnits="userSpaceOnUse" x1="2015.303" y1="60.7432" x2="1829.2841" y2="432.7802">
				<stop  offset="0" style="stop-color:#09005D"/>
				<stop  offset="1" style="stop-color:#1A0F91"/>
			</linearGradient>
			<path style="fill:url(#SVGID_00000152231363062964227320000014381966271884702611_);" d="M1897.317,170.388l-402.764,76.819
				c-20.739,3.955-28.799,29.796-14.056,45.094c71.913,74.624,235.008,248.047,293.97,345.581
				c6.308,10.434,18.807,15.133,30.32,11.453l412.293-131.781c18.65-5.961,24.716-29.716,11.241-44.067
				c-71.058-75.68-252.14-265.447-313.378-300.22C1909.59,170.227,1903.351,169.237,1897.317,170.388z"/>
			
				<linearGradient id="SVGID_00000166661138188700831880000000473105764906536320_" gradientUnits="userSpaceOnUse" x1="1916.4388" y1="327.5397" x2="2060.4531" y2="867.5939">
				<stop  offset="0" style="stop-color:#09005D"/>
				<stop  offset="1" style="stop-color:#1A0F91"/>
			</linearGradient>
			<path style="fill:url(#SVGID_00000166661138188700831880000000473105764906536320_);" d="M1870.624,375.871
				c0,0,197.622,152.922,210.879,185.018c13.256,32.095-31.175,168.663-31.175,168.663c22.566,120.95,16.145,249.535-45.47,311.612
				c0,0-54.983-161.305-18.535-223.98c36.448-62.675,50.637-88.434,50.637-88.434s39.949-146.247,33.335-168.252
				C2070.295,560.497,1852.097,382.788,1870.624,375.871z"/>
			<path style="fill:#BDD0FB;" d="M1543.829,289.311l182.982,218.895l45.745,54.724l11.436,13.681l5.718,6.841
				c1.839,2.167,3.8,4.122,5.997,5.869c8.793,6.935,20.769,9.611,31.692,6.979l138.555-33.86c0.969-0.237,1.947,0.356,2.184,1.326
				c0.236,0.965-0.352,1.939-1.314,2.181l-138.36,34.798c-12.232,3.039-25.746,0.13-35.708-7.626
				c-2.477-1.934-4.752-4.177-6.771-6.531l-5.764-6.802l-11.528-13.604l-46.112-54.415l-184.447-217.661
				c-1.329-1.568-1.135-3.917,0.433-5.246c1.568-1.329,3.917-1.135,5.245,0.433L1543.829,289.311z"/>
			<path style="fill:#BDD0FB;" d="M2028.406,799.477l-0.458,0.416l-0.525,0.531l-1.061,1.071l-2.05,2.351
				c-1.352,1.591-2.573,3.342-3.866,5.01l-3.495,5.361c-1.092,1.84-2.089,3.746-3.142,5.617c-1.1,1.845-1.954,3.83-2.855,5.79
				c-0.88,1.969-1.848,3.9-2.659,5.903l-2.26,6.091c-0.742,2.036-1.574,4.04-2.106,6.153l-1.804,6.266
				c-0.59,2.093-1.269,4.162-1.646,6.314c-0.872,4.27-1.828,8.527-2.639,12.815l-1.75,12.999c-0.133,1.085-0.322,2.165-0.41,3.256
				l-0.209,3.279l-0.419,6.56c-0.831,8.739-0.403,17.535-0.471,26.32c-0.05,2.199,0.117,4.392,0.274,6.585l0.443,6.583
				c0.315,4.388,0.543,8.785,0.93,13.169c1.162,8.729,2.142,17.492,3.452,26.209l4.84,26.023l0.013,0.068
				c0.131,0.703-0.333,1.378-1.035,1.509c-0.692,0.129-1.359-0.321-1.503-1.007l-5.464-26.051c-1.52-8.743-2.711-17.55-4.082-26.332
				c-0.492-4.416-0.825-8.852-1.245-13.281l-0.599-6.647c-0.209-2.216-0.427-4.431-0.429-6.66
				c-0.138-8.904-0.77-17.816-0.133-26.737l0.275-6.693l0.138-3.348c0.065-1.115,0.231-2.223,0.342-3.335l1.489-13.344
				c0.729-4.42,1.61-8.822,2.411-13.239c0.34-2.221,0.989-4.38,1.549-6.558l1.721-6.528c0.505-2.196,1.318-4.308,2.042-6.445
				l2.214-6.403c0.8-2.113,1.767-4.169,2.645-6.257c0.901-2.08,1.755-4.182,2.873-6.172c1.068-2.01,2.081-4.05,3.202-6.037
				l3.622-5.84c1.367-1.863,2.643-3.775,4.112-5.589l2.253-2.7l1.242-1.317l0.63-0.66l0.757-0.713
				c1.496-1.409,3.85-1.339,5.259,0.156c1.409,1.495,1.339,3.85-0.156,5.259c-0.012,0.011-0.024,0.023-0.036,0.034L2028.406,799.477
				z"/>
			<path style="fill:#BDD0FB;" d="M2029.803,855.208l-0.759,8.452l-0.743,9.375l-1.389,18.788l-2.628,37.611l-5.033,75.25
				c-0.071,1.115-1.032,1.961-2.147,1.89c-1.099-0.07-1.936-1.014-1.892-2.109l3.337-75.359l1.781-37.681l0.967-18.848l0.534-9.438
				l0.31-4.748l0.168-2.384c0.095-0.992,0.262-2.142,0.446-3.191c0.346-1.971,2.223-3.289,4.194-2.943
				c1.865,0.327,3.146,2.026,2.985,3.878L2029.803,855.208z"/>
		</g>
		<g>
			<g>
				
					<linearGradient id="SVGID_00000163057432792607360060000005690243948800747916_" gradientUnits="userSpaceOnUse" x1="497.2482" y1="1407.0199" x2="532.7279" y2="1407.0199">
					<stop  offset="0" style="stop-color:#FE7062"/>
					<stop  offset="1" style="stop-color:#FF928E"/>
				</linearGradient>
				<path style="fill:url(#SVGID_00000163057432792607360060000005690243948800747916_);" d="M516.75,1321.866
					c-3.484,5.154-17.328,121.86-19.495,164.963c-0.147,2.915,2.185,5.345,5.104,5.345l0,0c2.517,0,4.659-1.833,5.047-4.32
					l25.323-162.276L516.75,1321.866z"/>
				
					<linearGradient id="SVGID_00000059993263324110400240000003499794693986573967_" gradientUnits="userSpaceOnUse" x1="612.082" y1="1407.0199" x2="647.5616" y2="1407.0199">
					<stop  offset="0" style="stop-color:#FE7062"/>
					<stop  offset="1" style="stop-color:#FF928E"/>
				</linearGradient>
				<path style="fill:url(#SVGID_00000059993263324110400240000003499794693986573967_);" d="M628.06,1321.866
					c3.484,5.154,17.328,121.86,19.495,164.963c0.147,2.915-2.185,5.345-5.104,5.345l0,0c-2.517,0-4.659-1.833-5.047-4.32
					l-25.323-162.276L628.06,1321.866z"/>
				
					<linearGradient id="SVGID_00000060000381799525423560000000671522581565456800_" gradientUnits="userSpaceOnUse" x1="495.7944" y1="1314.5303" x2="648.9261" y2="1314.5303">
					<stop  offset="0" style="stop-color:#FE7062"/>
					<stop  offset="1" style="stop-color:#FF928E"/>
				</linearGradient>
				<path style="fill:url(#SVGID_00000060000381799525423560000000671522581565456800_);" d="M495.807,1312.758l-0.012,1.272
					c-0.083,9.156,7.804,16.666,17.68,16.834l117.047,1.991c9.734,0.166,17.848-6.869,18.321-15.883l0.061-1.165
					c0.492-9.401-7.491-17.32-17.642-17.502l-117.097-2.099C504.144,1296.027,495.892,1303.466,495.807,1312.758z"/>
			</g>
			<g>
				<g>
					<path style="fill:#7D97F4;" d="M723.512,1482.59c-20.807,0-30.013-1.785-34.129-3.413c0.8,3.417,3.843,6.114,7.689,6.114
						h73.608c2.479,0,4.044-2.373,3.451-4.521C765.74,1481.445,747.919,1482.59,723.512,1482.59z"/>
					
						<linearGradient id="SVGID_00000062181987346202939380000001498884697591862962_" gradientUnits="userSpaceOnUse" x1="754.7742" y1="1319.0328" x2="731.5846" y2="1479.2524">
						<stop  offset="0" style="stop-color:#4042E2"/>
						<stop  offset="1" style="stop-color:#4F52FF"/>
					</linearGradient>
					<path style="fill:url(#SVGID_00000062181987346202939380000001498884697591862962_);" d="M774.131,1480.77
						c-0.119-0.433-0.295-0.859-0.602-1.253c-5.607-7.158-16.871-18.401-32.192-18.185c-22.445,0.316-30.271,2.751-47.714,0.137
						l-4.115,13.639c-0.419,1.39-0.427,2.779-0.125,4.069c4.116,1.628,13.322,3.413,34.129,3.413
						C747.919,1482.59,765.74,1481.445,774.131,1480.77z"/>
				</g>
				
					<linearGradient id="SVGID_00000074429441414735689040000017703915379316978077_" gradientUnits="userSpaceOnUse" x1="693.6224" y1="1456.6573" x2="716.5865" y2="1456.6573">
					<stop  offset="0" style="stop-color:#FF928E"/>
					<stop  offset="1" style="stop-color:#FEB3B1"/>
				</linearGradient>
				<path style="fill:url(#SVGID_00000074429441414735689040000017703915379316978077_);" d="M698.673,1446.771l-5.051,17.178
					c0,0,11.19,5.094,21.032,1.005l1.932-14.883L698.673,1446.771z"/>
				<g>
					<path style="fill:#7D97F4;" d="M851.235,1471.771c-16.22,13.032-24.509,17.414-28.732,18.729
						c2.754,2.15,6.808,2.337,9.806-0.072l57.38-46.105c1.932-1.552,1.673-4.373-0.128-5.669
						C883.44,1444.433,870.261,1456.484,851.235,1471.771z"/>
					
						<linearGradient id="SVGID_00000021840966086729366410000003920358559896546469_" gradientUnits="userSpaceOnUse" x1="869.6374" y1="1335.6571" x2="846.4477" y2="1495.8772">
						<stop  offset="0" style="stop-color:#4042E2"/>
						<stop  offset="1" style="stop-color:#4F52FF"/>
					</linearGradient>
					<path style="fill:url(#SVGID_00000021840966086729366410000003920358559896546469_);" d="M889.56,1438.655
						c-0.363-0.261-0.766-0.482-1.251-0.594c-8.833-2.042-24.622-3.71-36.432,6.055c-17.3,14.304-21.883,21.095-37.109,29.992
						l5.294,13.159c0.54,1.341,1.4,2.423,2.439,3.235c4.223-1.315,12.513-5.697,28.732-18.729
						C870.261,1456.484,883.44,1444.433,889.56,1438.655z"/>
				</g>
				
					<linearGradient id="SVGID_00000160869614086414336550000015181108461659825809_" gradientUnits="userSpaceOnUse" x1="687.8561" y1="1342.4355" x2="799.8564" y2="1566.4357">
					<stop  offset="0" style="stop-color:#09005D"/>
					<stop  offset="1" style="stop-color:#1A0F91"/>
				</linearGradient>
				<path style="fill:url(#SVGID_00000160869614086414336550000015181108461659825809_);" d="M590.624,1251.052
					c0,0,124.571,10.171,150.125,22.201c25.555,12.03-20.854,180.635-20.854,180.635s-6.957,3.348-22.437-1.464
					c0,0,15.874-124.424,4.062-151.404l-134.878-22.061L590.624,1251.052z"/>
				
					<linearGradient id="SVGID_00000173152810069887150270000008742278534459102613_" gradientUnits="userSpaceOnUse" x1="802.3914" y1="1458.59" x2="829.8074" y2="1458.59">
					<stop  offset="0" style="stop-color:#FF928E"/>
					<stop  offset="1" style="stop-color:#FEB3B1"/>
				</linearGradient>
				<path style="fill:url(#SVGID_00000173152810069887150270000008742278534459102613_);" d="M802.391,1450.422
					c1.157,1.054,12.377,23.684,12.377,23.684s12.492-2.703,15.039-10.608l-11.24-20.425L802.391,1450.422z"/>
				
					<linearGradient id="SVGID_00000047021642027229203810000009324856919183704481_" gradientUnits="userSpaceOnUse" x1="526.2284" y1="1206.347" x2="748.2281" y2="1400.347">
					<stop  offset="0" style="stop-color:#09005D"/>
					<stop  offset="1" style="stop-color:#1A0F91"/>
				</linearGradient>
				<path style="fill:url(#SVGID_00000047021642027229203810000009324856919183704481_);" d="M515.596,1250.011
					c0,0-4.059,9.768-3.894,22.749c0.229,17.952,14.661,32.519,32.592,33.414l147.263,6.716c3.11,0.142,5.741,2.294,6.52,5.308
					c3.461,13.385,20.375,54.49,103.058,136.51c2.2,2.182,5.627,2.554,8.246,0.899l11.77-7.435c1.236-0.781,1.63-2.4,0.891-3.661
					L736.3,1298.089c-4.504-7.432-11.743-12.801-20.162-14.953l-125.513-32.083L515.596,1250.011z"/>
				
					<linearGradient id="SVGID_00000031913725065724956260000001580032275922486168_" gradientUnits="userSpaceOnUse" x1="677.5057" y1="1011.8027" x2="617.5056" y2="1136.8029">
					<stop  offset="0" style="stop-color:#FF928E"/>
					<stop  offset="1" style="stop-color:#FEB3B1"/>
				</linearGradient>
				<path style="fill:url(#SVGID_00000031913725065724956260000001580032275922486168_);" d="M660.722,1021.289
					c0,0-15.776,27.893-31.86,41.405l33.245,18.549c0,0,7.491-29.528,24.606-38.175L660.722,1021.289z"/>
				
					<linearGradient id="SVGID_00000168095536340598567850000005701480026398576295_" gradientUnits="userSpaceOnUse" x1="657.9435" y1="1185.5483" x2="561.9434" y2="1383.5483">
					<stop  offset="0" style="stop-color:#FE7062"/>
					<stop  offset="1" style="stop-color:#FF928E"/>
				</linearGradient>
				<path style="fill:url(#SVGID_00000168095536340598567850000005701480026398576295_);" d="M512.921,1251.052
					c0,0,39.756,9.689,77.703,0c0,0,53.098-71.38,73.641-90.807c0,0,32.767,51.707,105.701,59.034l4.068-9.089
					c0,0-58.063-26.766-75.938-67.892c-17.875-41.127-25.054-58.667-41.317-69.397c-10.128-6.682-16.192-11.248-19.326-13.741
					c-1.716-1.365-4.084-1.519-5.956-0.378C614.239,1069.298,533.033,1124.915,512.921,1251.052z"/>
				
					<linearGradient id="SVGID_00000098942614272034962310000013937093382460440221_" gradientUnits="userSpaceOnUse" x1="701.8253" y1="1040.1913" x2="680.2611" y2="1083.3197">
					<stop  offset="0" style="stop-color:#E1473D"/>
					<stop  offset="1" style="stop-color:#E9605A"/>
				</linearGradient>
				<path style="fill:url(#SVGID_00000098942614272034962310000013937093382460440221_);" d="M662.109,1158.55
					c-0.559,0-1.111-0.251-1.477-0.729c-12.599-16.431-19.615-34.534-19.908-35.297c-0.368-0.958,0.111-2.035,1.07-2.403
					c0.962-0.368,2.035,0.111,2.404,1.07c0.07,0.182,7.127,18.378,19.386,34.366c0.625,0.815,0.471,1.984-0.344,2.609
					C662.903,1158.424,662.504,1158.55,662.109,1158.55z"/>
				
					<linearGradient id="SVGID_00000097468890898612714960000010745076225182378171_" gradientUnits="userSpaceOnUse" x1="765.581" y1="1204.8134" x2="828.9088" y2="1204.8134">
					<stop  offset="0" style="stop-color:#FF928E"/>
					<stop  offset="1" style="stop-color:#FEB3B1"/>
				</linearGradient>
				<path style="fill:url(#SVGID_00000097468890898612714960000010745076225182378171_);" d="M765.581,1205.442l8.21-2.188
					l24.925-5.772c3-0.695,6.154-0.163,8.761,1.477l21.432,13.484l-59.185-0.1L765.581,1205.442z"/>
				<g>
					
						<linearGradient id="SVGID_00000115491019411201502860000006405793547763506820_" gradientUnits="userSpaceOnUse" x1="2557.1492" y1="1115.9749" x2="2559.1492" y2="1194.9745" gradientTransform="matrix(0.9914 -0.1306 0.1306 0.9914 -2069.7954 -150.9511)">
						<stop  offset="0" style="stop-color:#FF928E"/>
						<stop  offset="1" style="stop-color:#FEB3B1"/>
					</linearGradient>
					<path style="fill:url(#SVGID_00000115491019411201502860000006405793547763506820_);" d="M685.77,979.464
						c0,0,15.331,25.485,17.991,39.571c2.66,14.086,6.931,22.891-9.101,27.91c-16.031,5.019-30.93-1.333-40.281-14.482
						c0,0-14.602-20.235-13.145-29.502C642.692,993.696,685.77,979.464,685.77,979.464z"/>
					
						<linearGradient id="SVGID_00000061448711719545860380000009617856512822277028_" gradientUnits="userSpaceOnUse" x1="2539.2268" y1="1463.6869" x2="2600.6802" y2="1542.8079" gradientTransform="matrix(0.9914 -0.1306 0.1306 0.9914 -2069.7954 -150.9511)">
						<stop  offset="0" style="stop-color:#09005D"/>
						<stop  offset="1" style="stop-color:#1A0F91"/>
					</linearGradient>
					<path style="fill:url(#SVGID_00000061448711719545860380000009617856512822277028_);" d="M658.648,1021.562l2.074-0.273
						c0,0-10.856-16.404-3.752-20.473c7.104-4.069,36.05-14.054,41.078-25.455c4.846-10.99-2.403-23.407-11.143-25.997
						c-0.553-0.164-1.136,0.163-1.337,0.704l-0.513,1.384c-0.352,0.948-1.678,0.986-2.084,0.06l0,0
						c-0.384-0.879-1.642-0.916-2.038-0.042c-1.549,3.415-6.192,9.249-20.113,13.762c-19.753,6.404-32.057,16.361-30.543,30.395
						c0.096,0.889-0.787,1.502-1.605,1.141c-1.615-0.714-4.063-0.826-6.905,2.283c-4.943,5.406-1.071,17.232,12.429,25.6
						c0.641,0.398,0.756,1.302,0.183,1.793c-2.02,1.729-4.861,5.585,4.273,9.022c9.344,3.516,14.443,2.326,16.326,1.571
						c0.507-0.203,0.797-0.728,0.692-1.264l-2.4-12.298c-0.124-0.636,0.314-1.245,0.956-1.33L658.648,1021.562z"/>
					
						<linearGradient id="SVGID_00000049217914476978011850000005503387523210407041_" gradientUnits="userSpaceOnUse" x1="2534.9299" y1="1116.5382" x2="2536.9299" y2="1195.538" gradientTransform="matrix(0.9914 -0.1306 0.1306 0.9914 -2069.7954 -150.9511)">
						<stop  offset="0" style="stop-color:#FF928E"/>
						<stop  offset="1" style="stop-color:#FEB3B1"/>
					</linearGradient>
					<path style="fill:url(#SVGID_00000049217914476978011850000005503387523210407041_);" d="M659.5,1024.089
						c0,0-6.765-16.678-13.87-10.816c-7.105,5.862,6.568,18.821,12.878,18.647L659.5,1024.089z"/>
				</g>
			</g>
			<g>
				<g>
					
						<linearGradient id="SVGID_00000000904102339981510410000007825316592201814159_" gradientUnits="userSpaceOnUse" x1="5185.313" y1="-9174.0205" x2="5015.9482" y2="-9010.2773" gradientTransform="matrix(-1.388 -0.0686 -0.0685 1.3855 -6236.5127 -215.9469)">
						<stop  offset="0" style="stop-color:#09005D"/>
						<stop  offset="1" style="stop-color:#1A0F91"/>
					</linearGradient>
					<path style="fill:url(#SVGID_00000000904102339981510410000007825316592201814159_);" d="M742.715,1224.053
						c0.097,0.005,0.193,0.007,0.291,0.007l126.439-0.126c3.126-0.002,5.656-2.534,5.653-5.654c-0.003-3.121-2.549-5.7-5.667-5.644
						l-126.439,0.126c-3.125,0.002-5.656,2.534-5.653,5.654C737.343,1221.439,739.725,1223.905,742.715,1224.053z"/>
				</g>
				<g>
					
						<linearGradient id="SVGID_00000092447836548549778110000005655411412238416819_" gradientUnits="userSpaceOnUse" x1="2364.2485" y1="-8925.2314" x2="2194.8909" y2="-8761.4961" gradientTransform="matrix(0.6475 -1.2297 -1.2274 -0.6463 7293.9038 -7927.8447)">
						<stop  offset="0" style="stop-color:#09005D"/>
						<stop  offset="1" style="stop-color:#1A0F91"/>
					</linearGradient>
					<path style="fill:url(#SVGID_00000092447836548549778110000005655411412238416819_);" d="M918.411,1100.229
						c-0.045,0.086-0.088,0.172-0.129,0.261l-53.2,114.702c-1.316,2.835-0.088,6.197,2.743,7.51
						c2.831,1.313,6.243,0.092,7.507-2.758l53.2-114.702c1.316-2.835,0.087-6.197-2.743-7.51
						C923.047,1096.461,919.806,1097.58,918.411,1100.229z"/>
				</g>
			</g>
			<g>
				<path style="fill:#91B3FA;" d="M799.015,1230.399c-0.552,2.288-53.31,200.155-66.686,250.317
					c-1.542,5.781,2.763,11.458,8.68,11.458l0,0c4.126,0,7.721-2.842,8.721-6.893l58.565-237.448L799.015,1230.399z"/>
				<path style="fill:#91B3FA;" d="M827.904,1230.399c0.552,2.288,53.31,200.155,66.686,250.317
					c1.542,5.781-2.764,11.458-8.68,11.458l0,0c-4.126,0-7.722-2.842-8.721-6.893l-58.565-237.448L827.904,1230.399z"/>
				<path style="fill:#91B3FA;" d="M830.102,1223.929h-32.857v26.387c0,3.792,3.038,6.867,6.785,6.867h4.507v59.27
					c0,2.871,2.3,5.198,5.137,5.198l0,0c2.837,0,5.137-2.327,5.137-5.198v-59.27h2.287c4.973,0,9.005-4.08,9.005-9.114V1223.929z"/>
				<path style="fill:#BDD0FB;" d="M716.454,1217.591h183.468c2.564,0,4.803,1.756,5.444,4.269l2.561,10.045
					c0.922,3.615-1.788,7.134-5.477,7.112l-188.258-1.095c-3.649-0.021-6.311-3.5-5.42-7.081l2.228-8.949
					C711.631,1219.363,713.878,1217.591,716.454,1217.591z"/>
			</g>
		</g>
		<g>
			<g>
				
					<linearGradient id="SVGID_00000058549461353679820060000011306372227256946104_" gradientUnits="userSpaceOnUse" x1="1983.2094" y1="741.5654" x2="1990.5427" y2="790.8988" gradientTransform="matrix(0.987 0.1608 -0.1608 0.987 -46.6743 443.2292)">
					<stop  offset="0" style="stop-color:#09005D"/>
					<stop  offset="1" style="stop-color:#1A0F91"/>
				</linearGradient>
				<path style="fill:url(#SVGID_00000058549461353679820060000011306372227256946104_);" d="M1769.502,1098.105
					c-0.274,0.519-17.525,13.213-17.525,13.213s3.809,27.254,19.279,38.016c17.008,11.832,41.028-9.746,41.028-9.746
					s19.116,4.544,29.281-35.248c2.332-9.129-11.13-9.901-27.379-8.22C1793.235,1098.29,1769.502,1098.105,1769.502,1098.105z"/>
				<path style="fill:#BDD0FB;" d="M1737.258,1191.088c6.749-4.64,14.21-8.138,22.121-10.291c2.971-0.809,19.014,3.854,28.931,3.626
					c13.613-0.313,27.47-6.508,38.692-3.712c11.146,2.778,20.269,6.406,25.537,10.152c15.767,11.214,25.024,32.124,30.666,52.836
					c-10.682,10.966-24.125,15.839-24.125,15.839l-2.484,100.678l-59.532,30.459l-67.949-34.115l2.434-98.386
					c0,0-21.577-10.048-23.16-13.704C1706.803,1240.816,1718.221,1204.177,1737.258,1191.088z"/>
				
					<linearGradient id="SVGID_00000119113961655957515750000007024280352074935463_" gradientUnits="userSpaceOnUse" x1="1694.6182" y1="1222.4789" x2="1807.7465" y2="1495.7501">
					<stop  offset="0" style="stop-color:#FF928E"/>
					<stop  offset="1" style="stop-color:#FEB3B1"/>
				</linearGradient>
				<path style="fill:url(#SVGID_00000119113961655957515750000007024280352074935463_);" d="M1709.392,1244.032
					c0,0-28.915,80.163,37.021,113.11c13.691-1.819,8.425-24.555,8.425-24.555s-28.65-6.34-20.045-73.212
					C1726.871,1252.857,1709.392,1244.032,1709.392,1244.032z"/>
				
					<linearGradient id="SVGID_00000127018594878979480740000001951665811397258136_" gradientUnits="userSpaceOnUse" x1="-7298.2427" y1="1221.8915" x2="-7185.1143" y2="1495.1627" gradientTransform="matrix(-1 0 0 1 -5403.0742 0)">
					<stop  offset="0" style="stop-color:#FF928E"/>
					<stop  offset="1" style="stop-color:#FEB3B1"/>
				</linearGradient>
				<path style="fill:url(#SVGID_00000127018594878979480740000001951665811397258136_);" d="M1881.813,1244.032
					c0,0,19.896,83.679-37.021,113.11c-13.691-1.819-8.425-24.555-8.425-24.555s23.09-11.372,20.045-73.212
					C1864.334,1252.857,1881.813,1244.032,1881.813,1244.032z"/>
				
					<linearGradient id="SVGID_00000116212660383257244650000004410614956083237819_" gradientUnits="userSpaceOnUse" x1="1795.1029" y1="1257.9449" x2="1789.2367" y2="1495.5297">
					<stop  offset="0" style="stop-color:#09005D"/>
					<stop  offset="1" style="stop-color:#1A0F91"/>
				</linearGradient>
				<path style="fill:url(#SVGID_00000116212660383257244650000004410614956083237819_);" d="M1850.542,1362.772h-113.879
					c-4.584,0-8.334-3.75-8.334-8.334v-71.495c0-4.584,3.75-8.334,8.334-8.334h113.879c4.584,0,8.334,3.75,8.334,8.334v71.495
					C1858.877,1359.022,1855.126,1362.772,1850.542,1362.772z"/>
				<g>
					<path style="fill:#91B3FA;" d="M1916.137,1388.91c-14.94-3.429-49.47-1.586-49.47-1.586l-1.404,3.803l-2.326,18.905
						c0,0,32.884,5.927,49.093,5.913c1.654-0.002,3.166-0.25,4.548-0.68c0.494-0.443,0.977-0.903,1.434-1.402
						C1924.888,1406.353,1922.902,1395.32,1916.137,1388.91z"/>
					
						<linearGradient id="SVGID_00000100370361701518689600000012714416852163840694_" gradientUnits="userSpaceOnUse" x1="1903.809" y1="1289.6368" x2="1838.553" y2="1466.3898">
						<stop  offset="0" style="stop-color:#FF928E"/>
						<stop  offset="1" style="stop-color:#FEB3B1"/>
					</linearGradient>
					<path style="fill:url(#SVGID_00000100370361701518689600000012714416852163840694_);" d="M1856.745,1386.259l5.847,0.249
						c3.141,0.134,6.102,1.665,8.214,4.247c2.112,2.582,3.198,5.999,3.014,9.479c-0.148,2.775-1.286,5.371-3.164,7.212
						c-1.878,1.841-4.34,2.776-6.842,2.598l-8.946-0.637L1856.745,1386.259z"/>
				</g>
				<g>
					<path style="fill:#91B3FA;" d="M1660.136,1387.091c15.02-2.97,49.491-0.067,49.491-0.067l1.309,3.845l1.853,18.969
						c0,0-33.019,4.916-49.222,4.404c-1.653-0.052-3.159-0.347-4.53-0.819c-0.483-0.458-0.954-0.933-1.398-1.446
						C1650.952,1404.259,1653.213,1393.291,1660.136,1387.091z"/>
					
						<linearGradient id="SVGID_00000176734110189679114210000016708628056004097450_" gradientUnits="userSpaceOnUse" x1="1773.0674" y1="1236.3717" x2="1707.7769" y2="1413.2181">
						<stop  offset="0" style="stop-color:#FF928E"/>
						<stop  offset="1" style="stop-color:#FEB3B1"/>
					</linearGradient>
					<path style="fill:url(#SVGID_00000176734110189679114210000016708628056004097450_);" d="M1719.571,1386.264l-5.851,0.07
						c-3.143,0.038-6.141,1.477-8.317,3.994c-2.176,2.516-3.347,5.898-3.249,9.383c0.078,2.779,1.152,5.408,2.983,7.306
						c1.831,1.898,4.269,2.909,6.774,2.807l8.959-0.362L1719.571,1386.264z"/>
				</g>
				
					<linearGradient id="SVGID_00000108292395810837901350000009329535659014633874_" gradientUnits="userSpaceOnUse" x1="1855.7477" y1="1298.5771" x2="1726.7537" y2="1537.0659">
					<stop  offset="0" style="stop-color:#E1473D"/>
					<stop  offset="1" style="stop-color:#E9605A"/>
				</linearGradient>
				<path style="fill:url(#SVGID_00000108292395810837901350000009329535659014633874_);" d="M1920.315,1329.644
					c-6.775-15.594-23.346-18.125-37.45-10.834c-0.246,0.322-89.569,46.102-168.341,66.165c2.255,7.23,3.415,14.922,3.667,22.484
					c0.046,1.685,0.017,3.346-0.081,4.986c60.407-3.103,125.967-23.248,182.302-40.953
					C1917.881,1365.858,1927.825,1346.927,1920.315,1329.644z"/>
				
					<linearGradient id="SVGID_00000054953550521866992280000015547100027311330470_" gradientUnits="userSpaceOnUse" x1="1763.9674" y1="1258.7178" x2="1763.9674" y2="1356.213">
					<stop  offset="0" style="stop-color:#E1473D"/>
					<stop  offset="1" style="stop-color:#E9605A"/>
				</linearGradient>
				<path style="fill:url(#SVGID_00000054953550521866992280000015547100027311330470_);" d="M1857.174,1408.643
					c-0.236-8.715,1.458-16.829,5.083-24.34c0.104-0.344,0.228-0.674,0.337-1.014c-4.498-1.393-10.309-3.281-17.943-5.87
					c-55.936-19.143-98.609-38.472-139.336-60.722c-15.822-8.644-33.811-2.851-38.876,15.87
					c-4.521,16.713,5.407,30.981,20.476,35.995c45.083,15.002,21.609,10.835,36.333,15.573
					c39.542,12.228,88.747,23.365,134.019,26.406C1857.234,1409.908,1857.195,1409.274,1857.174,1408.643z"/>
				
					<linearGradient id="SVGID_00000029750524844169987340000015960052645688630691_" gradientUnits="userSpaceOnUse" x1="1797.7775" y1="1134.8777" x2="1787.1107" y2="1241.5442">
					<stop  offset="0" style="stop-color:#FF928E"/>
					<stop  offset="1" style="stop-color:#FEB3B1"/>
				</linearGradient>
				<path style="fill:url(#SVGID_00000029750524844169987340000015960052645688630691_);" d="M1759.378,1180.797
					c0,0,6.016,26.069,35.223,25.528c29.748-0.542,32.4-25.614,32.4-25.614l-19.432-4.158l-1.624-21.652l-29.231,2.165l-0.541,20.57
					L1759.378,1180.797z"/>
				
					<linearGradient id="SVGID_00000116204021264108078330000006767080874546068908_" gradientUnits="userSpaceOnUse" x1="1794.4226" y1="1099.5996" x2="1801.7559" y2="1168.9329">
					<stop  offset="0" style="stop-color:#FF928E"/>
					<stop  offset="1" style="stop-color:#FEB3B1"/>
				</linearGradient>
				<path style="fill:url(#SVGID_00000116204021264108078330000006767080874546068908_);" d="M1780.818,1093.553
					c0,0-33.498,64.888,6.238,80.63c28.028,11.104,45.601-43.09,40.36-57.769c-8.104-22.696-13.442-20.003-13.442-20.003
					L1780.818,1093.553z"/>
				
					<linearGradient id="SVGID_00000172406599143001222870000002912366715034061481_" gradientUnits="userSpaceOnUse" x1="1983.3987" y1="741.5372" x2="1990.7321" y2="790.8705" gradientTransform="matrix(0.987 0.1608 -0.1608 0.987 -46.6743 443.2292)">
					<stop  offset="0" style="stop-color:#09005D"/>
					<stop  offset="1" style="stop-color:#1A0F91"/>
				</linearGradient>
				<path style="fill:url(#SVGID_00000172406599143001222870000002912366715034061481_);" d="M1835.477,1087.649
					c16.549,4.549,2.406,40.439-22.509,31.952c-24.915-8.487-34.706-8.363-38.588-1.522c-3.883,6.842-4.717,31.137-13.141,19.129
					c-9.236-13.166-14.385-39.591-3.062-48.11c10.12-7.613,12.482-19.417,24.62-19.008c16.112,0.543,28.572-6.599,35.844-1.448
					C1826.994,1074.556,1823.301,1084.302,1835.477,1087.649z"/>
				
					<linearGradient id="SVGID_00000016066263283976834170000005403348533720846517_" gradientUnits="userSpaceOnUse" x1="1766.1665" y1="1102.5881" x2="1773.4998" y2="1171.9215">
					<stop  offset="0" style="stop-color:#FF928E"/>
					<stop  offset="1" style="stop-color:#FEB3B1"/>
				</linearGradient>
				<path style="fill:url(#SVGID_00000016066263283976834170000005403348533720846517_);" d="M1772.848,1123.658
					c0,0-7.144-7.687-8.288,1.578c-1.144,9.265,2.528,21.197,6.829,14.656C1775.69,1133.352,1772.848,1123.658,1772.848,1123.658z"
					/>
			</g>
			
				<linearGradient id="SVGID_00000024003229079513925830000016108070990690433420_" gradientUnits="userSpaceOnUse" x1="1794.4437" y1="1239.5731" x2="1790.642" y2="1421.5066">
				<stop  offset="0" style="stop-color:#4042E2"/>
				<stop  offset="1" style="stop-color:#4F52FF"/>
			</linearGradient>
			<path style="fill:url(#SVGID_00000024003229079513925830000016108070990690433420_);" d="M1801.303,1298.484
				c0.692,4.677-1.814,8.923-6.491,9.615c-4.678,0.692-9.03-2.539-9.722-7.216c-0.692-4.677,1.449-9.323,6.126-10.015
				C1795.893,1290.176,1800.611,1293.807,1801.303,1298.484z"/>
		</g>
		<g>
			<path style="fill:#FFFFFF;" d="M595.146,897.412l-5.401,1.67c-0.544,0.168-1.12-0.136-1.289-0.68
				c-0.168-0.544,0.136-1.12,0.68-1.288c0.009-0.003,0.018-0.006,0.027-0.008l0.074-0.02l5.317-1.459l0.065-0.018
				c0.5-0.137,1.017,0.157,1.154,0.657C595.909,896.756,595.627,897.262,595.146,897.412z"/>
			<path style="fill:#FFFFFF;" d="M576.769,901.485l-5.652,0.396c-0.732,0.051-1.368-0.501-1.419-1.233
				c-0.051-0.732,0.501-1.368,1.233-1.419c0.012-0.001,0.025-0.001,0.037-0.002l0.093-0.003l5.492-0.208l0.083-0.003
				c0.683-0.026,1.258,0.507,1.284,1.191C577.946,900.873,577.433,901.438,576.769,901.485z"/>
			<path style="fill:#FFFFFF;" d="M557.904,901.397l-5.62-0.779c-0.891-0.124-1.513-0.946-1.39-1.837
				c0.124-0.891,0.946-1.513,1.837-1.39c0.015,0.002,0.03,0.005,0.045,0.007l0.099,0.017l5.41,0.928l0.09,0.016
				c0.837,0.144,1.399,0.938,1.256,1.775C559.49,900.953,558.722,901.509,557.904,901.397z"/>
			<path style="fill:#FFFFFF;" d="M539.41,897.539l-5.381-1.81c-0.975-0.328-1.499-1.384-1.171-2.359
				c0.328-0.975,1.384-1.499,2.359-1.171c0.011,0.004,0.023,0.008,0.034,0.012l0.098,0.035l5.158,1.874l0.088,0.032
				c0.931,0.339,1.412,1.367,1.073,2.299C541.335,897.368,540.33,897.847,539.41,897.539z"/>
			<path style="fill:#FFFFFF;" d="M521.873,890.475l-5.017-2.665c-1.017-0.54-1.404-1.803-0.864-2.82
				c0.54-1.017,1.803-1.404,2.82-0.864c0.012,0.006,0.023,0.013,0.035,0.019l0.094,0.053l4.783,2.69l0.084,0.047
				c0.971,0.546,1.316,1.776,0.77,2.747C524.04,890.638,522.837,890.985,521.873,890.475z"/>
			<path style="fill:#FFFFFF;" d="M505.666,880.705l-4.555-3.405c-1.021-0.763-1.23-2.21-0.467-3.232
				c0.763-1.021,2.211-1.23,3.232-0.467c0.012,0.009,0.024,0.018,0.035,0.027l0.091,0.071l4.309,3.385l0.081,0.064
				c0.973,0.765,1.142,2.173,0.378,3.147C508.017,881.253,506.637,881.43,505.666,880.705z"/>
			<path style="fill:#FFFFFF;" d="M491.109,868.563l-3.998-4.075c-0.98-0.998-0.964-2.602,0.034-3.581
				c0.998-0.979,2.602-0.964,3.581,0.034c0.011,0.012,0.022,0.023,0.034,0.035l0.089,0.095l3.739,3.999l0.08,0.085
				c0.929,0.994,0.877,2.553-0.117,3.483C493.572,869.552,492.043,869.513,491.109,868.563z"/>
			<path style="fill:#FFFFFF;" d="M478.541,854.348l-3.38-4.57c-0.905-1.224-0.647-2.95,0.577-3.855
				c1.224-0.905,2.95-0.646,3.855,0.577c0.01,0.014,0.021,0.029,0.031,0.043l0.066,0.094l3.152,4.484l0.059,0.084
				c0.854,1.214,0.561,2.891-0.653,3.745C481.053,855.789,479.407,855.516,478.541,854.348z"/>
			<path style="fill:#FFFFFF;" d="M467.934,838.663l-2.82-4.929c-0.817-1.428-0.322-3.249,1.107-4.066
				c1.428-0.817,3.249-0.322,4.066,1.107c0.009,0.016,0.019,0.033,0.028,0.05l0.052,0.097l2.609,4.826l0.046,0.086
				c0.765,1.415,0.238,3.181-1.177,3.946C470.453,840.531,468.717,840.029,467.934,838.663z"/>
			<path style="fill:#FFFFFF;" d="M459.148,821.912l-2.306-5.181c-0.719-1.616,0.008-3.51,1.624-4.229
				c1.616-0.719,3.51,0.008,4.229,1.624c0.008,0.019,0.016,0.038,0.024,0.056l0.039,0.095l2.113,5.072l0.034,0.082
				c0.666,1.598-0.09,3.434-1.688,4.1C461.644,824.187,459.839,823.46,459.148,821.912z"/>
			<path style="fill:#FFFFFF;" d="M452.035,804.417l-1.832-5.355c-0.602-1.759,0.337-3.674,2.096-4.276
				c1.76-0.602,3.674,0.337,4.276,2.096c0.003,0.01,0.007,0.02,0.01,0.03l0.029,0.09l1.705,5.235l0.024,0.074
				c0.569,1.746-0.386,3.623-2.132,4.192C454.481,807.065,452.623,806.131,452.035,804.417z"/>
			<path style="fill:#FFFFFF;" d="M446.39,786.435l-1.455-5.466c-0.498-1.87,0.615-3.79,2.485-4.288
				c1.87-0.498,3.79,0.615,4.288,2.485c0.003,0.011,0.005,0.021,0.008,0.032l0.02,0.081l1.342,5.36l0.016,0.064
				c0.465,1.855-0.663,3.735-2.518,4.2C448.74,789.364,446.876,788.259,446.39,786.435z"/>
			<path style="fill:#FFFFFF;" d="M441.924,768.152l-1.143-5.52c-0.408-1.969,0.858-3.896,2.828-4.304
				c1.97-0.408,3.897,0.858,4.304,2.828c0.002,0.011,0.005,0.022,0.007,0.033l0.014,0.071l1.041,5.43l0.01,0.054
				c0.374,1.953-0.905,3.839-2.858,4.214C444.193,771.329,442.323,770.074,441.924,768.152z"/>
			<path style="fill:#FFFFFF;" d="M438.417,749.705l-0.896-5.558c-0.332-2.06,1.069-4,3.13-4.332c2.06-0.332,4,1.069,4.332,3.13
				c0.002,0.012,0.004,0.023,0.005,0.035l0.01,0.067l0.8,5.477l0.007,0.047c0.298,2.042-1.116,3.94-3.158,4.238
				C440.624,753.104,438.742,751.716,438.417,749.705z"/>
			<path style="fill:#FFFFFF;" d="M435.704,731.134l-0.662-5.592c-0.254-2.148,1.281-4.095,3.429-4.349
				c2.148-0.254,4.095,1.281,4.349,3.428c0.001,0.012,0.003,0.024,0.004,0.037l0.007,0.069l0.569,5.505l0.005,0.049
				c0.22,2.129-1.327,4.032-3.455,4.253C437.842,734.751,435.954,733.232,435.704,731.134z"/>
			<path style="fill:#FFFFFF;" d="M433.77,712.462l-0.428-5.617c-0.17-2.232,1.501-4.18,3.733-4.35
				c2.232-0.17,4.18,1.501,4.35,3.733c0.001,0.013,0.002,0.025,0.003,0.038l0.004,0.072l0.339,5.522l0.003,0.051
				c0.136,2.211-1.547,4.114-3.758,4.25C435.826,716.295,433.938,714.642,433.77,712.462z"/>
			<path style="fill:#FFFFFF;" d="M432.616,693.719l-0.193-5.632c-0.079-2.313,1.731-4.252,4.044-4.332
				c2.313-0.079,4.252,1.731,4.332,4.044c0,0.013,0.001,0.026,0.001,0.039l0.001,0.075l0.108,5.529l0.001,0.053
				c0.045,2.291-1.776,4.184-4.067,4.229C434.574,697.769,432.694,695.979,432.616,693.719z"/>
			<path style="fill:#FFFFFF;" d="M432.247,674.937l0.044-5.637c0.019-2.39,1.971-4.313,4.361-4.294
				c2.39,0.019,4.313,1.971,4.294,4.362c0,0.013,0,0.027,0,0.041l-0.002,0.077l-0.125,5.527l-0.001,0.055
				c-0.053,2.367-2.015,4.242-4.382,4.188C434.092,679.202,432.23,677.273,432.247,674.937z"/>
			<path style="fill:#FFFFFF;" d="M432.675,656.148l0.285-5.633c0.125-2.463,2.222-4.358,4.685-4.233
				c2.463,0.125,4.358,2.222,4.233,4.685c-0.001,0.014-0.001,0.028-0.002,0.042l-0.005,0.081l-0.361,5.513l-0.004,0.058
				c-0.16,2.438-2.265,4.284-4.703,4.125C434.389,660.627,432.554,658.556,432.675,656.148z"/>
			<path style="fill:#FFFFFF;" d="M433.912,637.384l0.531-5.618c0.239-2.53,2.485-4.388,5.015-4.148
				c2.53,0.239,4.388,2.485,4.148,5.015c-0.001,0.014-0.003,0.029-0.004,0.043l-0.009,0.085l-0.601,5.489l-0.007,0.061
				c-0.274,2.504-2.526,4.311-5.03,4.037C435.475,642.076,433.679,639.86,433.912,637.384z"/>
			<path style="fill:#FFFFFF;" d="M435.976,618.683l0.784-5.593c0.363-2.592,2.759-4.399,5.351-4.036
				c2.592,0.363,4.399,2.759,4.036,5.351c-0.002,0.015-0.004,0.029-0.006,0.044l-0.014,0.089l-0.846,5.453l-0.01,0.064
				c-0.398,2.564-2.799,4.32-5.362,3.922C437.368,623.583,435.622,621.219,435.976,618.683z"/>
			<path style="fill:#FFFFFF;" d="M438.887,600.081l1.042-5.554c0.497-2.647,3.045-4.39,5.692-3.894
				c2.647,0.497,4.39,3.045,3.894,5.693c-0.003,0.015-0.006,0.03-0.009,0.045l-0.019,0.092l-1.097,5.404l-0.014,0.068
				c-0.531,2.617-3.083,4.308-5.7,3.777C440.085,605.185,438.403,602.672,438.887,600.081z"/>
			<path style="fill:#FFFFFF;" d="M442.711,581.632l1.328-5.497c0.642-2.658,3.318-4.293,5.976-3.651
				c2.659,0.642,4.293,3.318,3.651,5.976l-0.009,0.037l-0.018,0.07l-1.335,5.346l-0.018,0.071c-0.66,2.642-3.336,4.249-5.978,3.589
				C443.68,586.917,442.077,584.262,442.711,581.632z"/>
			<path style="fill:#FFFFFF;" d="M447.454,563.385l1.602-5.428c0.785-2.661,3.579-4.182,6.24-3.397
				c2.661,0.785,4.182,3.579,3.397,6.24l-0.011,0.037l-0.022,0.073l-1.599,5.269l-0.022,0.074c-0.802,2.643-3.595,4.136-6.239,3.334
				C448.169,568.788,446.678,566.016,447.454,563.385z"/>
			<path style="fill:#FFFFFF;" d="M453.119,545.387l1.884-5.342c0.936-2.654,3.845-4.046,6.499-3.11
				c2.654,0.936,4.046,3.846,3.111,6.499l-0.013,0.037l-0.028,0.076l-1.869,5.174l-0.028,0.077c-0.952,2.635-3.86,4-6.495,3.047
				C453.558,550.898,452.195,548.012,453.119,545.387z"/>
			<path style="fill:#FFFFFF;" d="M459.734,527.7l2.173-5.236c1.094-2.635,4.117-3.885,6.752-2.791
				c2.635,1.094,3.885,4.117,2.791,6.752l-0.015,0.037l-0.034,0.079l-2.146,5.06l-0.034,0.08c-1.109,2.616-4.129,3.837-6.745,2.727
				C459.874,533.304,458.653,530.306,459.734,527.7z"/>
			<path style="fill:#FFFFFF;" d="M467.324,510.39l2.473-5.112c1.259-2.604,4.391-3.694,6.996-2.434
				c2.604,1.26,3.694,4.392,2.435,6.995l-0.018,0.036l-0.04,0.082l-2.431,4.929l-0.041,0.082c-1.274,2.584-4.401,3.645-6.985,2.371
				C467.142,516.071,466.079,512.966,467.324,510.39z"/>
			<path style="fill:#FFFFFF;" d="M475.914,493.529l2.773-4.956c1.432-2.559,4.667-3.472,7.225-2.041
				c2.559,1.432,3.473,4.667,2.041,7.226l-0.02,0.035l-0.048,0.084l-2.715,4.767l-0.048,0.085c-1.445,2.537-4.674,3.422-7.211,1.977
				C475.386,499.267,474.498,496.061,475.914,493.529z"/>
			<path style="fill:#FFFFFF;" d="M485.515,477.208l3.079-4.779c1.609-2.498,4.939-3.218,7.437-1.608
				c2.498,1.609,3.218,4.939,1.608,7.437l-0.022,0.034l-0.056,0.085l-3.003,4.583l-0.056,0.086
				c-1.622,2.475-4.944,3.167-7.419,1.545C484.619,482.978,483.923,479.679,485.515,477.208z"/>
			<path style="fill:#FFFFFF;" d="M496.141,461.513l3.396-4.565c1.791-2.407,5.195-2.907,7.602-1.116
				c2.407,1.791,2.907,5.195,1.116,7.602l-0.009,0.012l-0.064,0.086l-3.28,4.384l-0.064,0.086c-1.795,2.399-5.195,2.889-7.594,1.094
				C494.844,467.301,494.345,463.912,496.141,461.513z"/>
			<path style="fill:#FFFFFF;" d="M507.815,446.562l3.697-4.33c1.957-2.292,5.402-2.564,7.695-0.606
				c2.292,1.957,2.564,5.402,0.607,7.695l-0.01,0.011l-0.073,0.085l-3.564,4.151l-0.073,0.085c-1.961,2.284-5.402,2.546-7.686,0.585
				C506.126,452.276,505.854,448.846,507.815,446.562z"/>
			<path style="fill:#FFFFFF;" d="M520.484,432.428l3.99-4.067c2.12-2.162,5.592-2.195,7.754-0.075
				c2.162,2.12,2.195,5.592,0.075,7.754l-0.01,0.01l-0.081,0.082l-3.839,3.893l-0.081,0.082c-2.123,2.153-5.59,2.177-7.743,0.054
				C518.395,438.037,518.361,434.581,520.484,432.428z"/>
			<path style="fill:#FFFFFF;" d="M534.112,419.201l4.264-3.775c2.278-2.016,5.758-1.804,7.775,0.473
				c2.016,2.278,1.804,5.758-0.473,7.775l-0.011,0.01l-0.088,0.077l-4.099,3.609l-0.088,0.077c-2.28,2.007-5.755,1.786-7.763-0.493
				C531.622,424.674,531.832,421.208,534.112,419.201z"/>
			<path style="fill:#FFFFFF;" d="M548.632,406.975l4.521-3.467c2.425-1.859,5.898-1.401,7.757,1.024
				c1.859,2.425,1.401,5.898-1.024,7.757l-0.012,0.009l-0.091,0.07l-4.348,3.315l-0.092,0.07c-2.426,1.85-5.893,1.383-7.743-1.043
				C545.75,412.283,546.206,408.825,548.632,406.975z"/>
			<path style="fill:#FFFFFF;" d="M563.971,395.787l4.744-3.149c2.557-1.698,6.006-1,7.704,1.557c1.697,2.557,1,6.007-1.557,7.704
				l-0.012,0.008l-0.093,0.061l-4.566,3.013l-0.093,0.062c-2.558,1.688-6.001,0.983-7.689-1.575
				C560.72,400.91,561.413,397.476,563.971,395.787z"/>
			<path style="fill:#FFFFFF;" d="M580.018,385.664l4.937-2.829c2.675-1.533,6.086-0.607,7.619,2.068
				c1.533,2.675,0.607,6.086-2.068,7.619l-0.013,0.008l-0.093,0.053l-4.757,2.709l-0.094,0.053c-2.675,1.524-6.079,0.59-7.603-2.085
				C576.422,390.584,577.342,387.188,580.018,385.664z"/>
			<path style="fill:#FFFFFF;" d="M596.673,376.604l5.101-2.512c2.778-1.368,6.14-0.225,7.508,2.553
				c1.368,2.778,0.225,6.14-2.553,7.508l-0.013,0.007l-0.092,0.045l-4.922,2.407l-0.093,0.046c-2.778,1.359-6.132,0.208-7.49-2.57
				C592.757,381.31,593.894,377.963,596.673,376.604z"/>
			<path style="fill:#FFFFFF;" d="M613.844,368.597l5.239-2.199c2.868-1.204,6.169,0.145,7.373,3.013
				c1.204,2.868-0.145,6.169-3.013,7.373l-0.014,0.006l-0.091,0.038l-5.061,2.109l-0.092,0.038c-2.867,1.195-6.16-0.162-7.355-3.029
				C609.634,373.079,610.976,369.792,613.844,368.597z"/>
			<path style="fill:#FFFFFF;" d="M631.456,361.649l5.358-1.878c2.927-1.026,6.133,0.515,7.159,3.443
				c1.026,2.928-0.515,6.133-3.443,7.159l-0.075,0.026l-5.173,1.83l-0.09,0.031c-2.929,1.036-6.143-0.499-7.179-3.428
				c-1.036-2.929,0.499-6.143,3.428-7.179L631.456,361.649z"/>
			<path style="fill:#FFFFFF;" d="M649.428,355.741l5.445-1.577c2.966-0.859,6.067,0.849,6.926,3.815
				c0.859,2.966-0.849,6.066-3.815,6.926l-0.072,0.021l-5.266,1.541l-0.087,0.025c-2.968,0.868-6.078-0.833-6.946-3.801
				c-0.868-2.968,0.833-6.078,3.801-6.946L649.428,355.741z"/>
			<path style="fill:#FFFFFF;" d="M667.676,350.824l5.524-1.287c2.993-0.697,5.985,1.164,6.682,4.158
				c0.697,2.993-1.164,5.985-4.158,6.682l-0.07,0.017l-5.351,1.262l-0.085,0.02c-2.995,0.706-5.997-1.149-6.703-4.145
				c-0.706-2.996,1.149-5.997,4.145-6.703L667.676,350.824z"/>
			<path style="fill:#FFFFFF;" d="M686.154,346.872l5.584-1.002c3.011-0.54,5.89,1.463,6.43,4.474c0.54,3.011-1.463,5.89-4.474,6.43
				l-0.068,0.012l-5.416,0.987l-0.083,0.015c-3.014,0.549-5.902-1.448-6.451-4.462c-0.549-3.014,1.448-5.902,4.462-6.451
				L686.154,346.872z"/>
			<path style="fill:#FFFFFF;" d="M704.803,343.863l5.625-0.722c3.02-0.388,5.782,1.746,6.17,4.766
				c0.388,3.02-1.746,5.782-4.766,6.17l-0.066,0.008l-5.462,0.717l-0.081,0.01c-3.023,0.397-5.795-1.732-6.192-4.755
				c-0.397-3.023,1.732-5.795,4.755-6.192L704.803,343.863z"/>
			<path style="fill:#FFFFFF;" d="M723.572,341.779l5.649-0.447c3.021-0.239,5.663,2.016,5.903,5.036
				c0.239,3.021-2.016,5.663-5.037,5.903l-0.064,0.005l-5.489,0.45l-0.079,0.006c-3.024,0.248-5.677-2.003-5.925-5.027
				c-0.248-3.024,2.003-5.677,5.027-5.925L723.572,341.779z"/>
			<path style="fill:#FFFFFF;" d="M742.407,340.605l5.649-0.181c3.014-0.096,5.536,2.269,5.633,5.283
				c0.096,3.014-2.269,5.536-5.283,5.633l-0.057,0.002l-5.503,0.192l-0.073,0.003c-3.018,0.105-5.55-2.257-5.656-5.275
				c-0.105-3.018,2.256-5.551,5.275-5.656L742.407,340.605z"/>
			<path style="fill:#FFFFFF;" d="M761.247,340.292l5.651,0.065c3.001,0.034,5.406,2.495,5.372,5.496
				c-0.034,3.001-2.495,5.406-5.496,5.372l-0.054-0.001l-5.513-0.047l-0.069-0.001c-3.006-0.026-5.421-2.483-5.395-5.489
				c0.026-3.006,2.484-5.421,5.489-5.395H761.247z"/>
			<path style="fill:#FFFFFF;" d="M780.075,340.782l5.64,0.298c2.983,0.157,5.273,2.703,5.116,5.686
				c-0.157,2.983-2.703,5.273-5.686,5.116l-0.05-0.002l-5.51-0.275l-0.065-0.003c-2.988-0.149-5.289-2.692-5.139-5.68
				c0.149-2.988,2.692-5.289,5.68-5.139L780.075,340.782z"/>
			<path style="fill:#FFFFFF;" d="M798.853,342.034l5.62,0.517c2.96,0.272,5.139,2.893,4.867,5.853
				c-0.272,2.96-2.893,5.139-5.853,4.867l-0.046-0.004l-5.5-0.49l-0.061-0.006c-2.965-0.264-5.155-2.882-4.89-5.848
				c0.264-2.965,2.883-5.155,5.848-4.89L798.853,342.034z"/>
			<path style="fill:#FFFFFF;" d="M817.557,344l5.593,0.722c2.934,0.379,5.005,3.065,4.626,5.998
				c-0.379,2.934-3.064,5.005-5.998,4.626l-0.042-0.005l-5.482-0.692l-0.057-0.007c-2.939-0.371-5.021-3.055-4.65-5.994
				s3.055-5.021,5.994-4.65L817.557,344z"/>
			<path style="fill:#FFFFFF;" d="M836.165,346.634l5.561,0.914c2.905,0.477,4.873,3.219,4.396,6.124
				c-0.477,2.905-3.219,4.873-6.124,4.396l-0.038-0.006l-5.459-0.881l-0.053-0.009c-2.91-0.47-4.889-3.21-4.419-6.12
				c0.47-2.91,3.21-4.889,6.121-4.419L836.165,346.634z"/>
			<path style="fill:#FFFFFF;" d="M854.662,349.89l5.521,1.09c2.874,0.567,4.744,3.357,4.176,6.231
				c-0.568,2.874-3.357,4.743-6.231,4.176l-0.034-0.007l-5.427-1.056l-0.049-0.01c-2.88-0.56-4.76-3.349-4.2-6.229
				c0.56-2.88,3.349-4.76,6.229-4.2L854.662,349.89z"/>
			<path style="fill:#FFFFFF;" d="M873.025,353.72l5.486,1.255c2.842,0.65,4.618,3.481,3.968,6.322
				c-0.65,2.841-3.481,4.618-6.322,3.968l-0.03-0.007l-5.401-1.22l-0.045-0.01c-2.848-0.643-4.635-3.473-3.992-6.321
				c0.643-2.848,3.473-4.635,6.321-3.992L873.025,353.72z"/>
			<path style="fill:#FFFFFF;" d="M891.271,358.085l5.449,1.408c2.808,0.725,4.497,3.59,3.772,6.398
				c-0.725,2.809-3.59,4.497-6.398,3.772l-0.027-0.007l-5.371-1.371l-0.041-0.011c-2.815-0.719-4.514-3.583-3.796-6.397
				c0.718-2.815,3.583-4.514,6.397-3.796L891.271,358.085z"/>
			<path style="fill:#FFFFFF;" d="M909.388,362.942l5.41,1.547c2.775,0.793,4.381,3.686,3.588,6.461
				c-0.794,2.775-3.686,4.381-6.461,3.588l-0.023-0.006l-5.339-1.511l-0.037-0.011c-2.781-0.787-4.398-3.679-3.611-6.461
				c0.787-2.781,3.68-4.398,6.461-3.611L909.388,362.942z"/>
			<path style="fill:#FFFFFF;" d="M927.361,368.246l5.367,1.674c2.742,0.855,4.271,3.771,3.416,6.512
				c-0.855,2.742-3.771,4.271-6.512,3.416l-0.02-0.006l-5.304-1.638l-0.034-0.01c-2.748-0.849-4.288-3.764-3.439-6.513
				c0.849-2.748,3.764-4.288,6.512-3.439L927.361,368.246z"/>
			<path style="fill:#FFFFFF;" d="M945.198,373.961l5.323,1.788c2.709,0.91,4.167,3.844,3.256,6.552
				c-0.91,2.709-3.844,4.167-6.552,3.256l-0.017-0.006l-5.266-1.753l-0.031-0.01c-2.715-0.904-4.184-3.838-3.28-6.553
				c0.904-2.715,3.838-4.184,6.553-3.28L945.198,373.961z"/>
			<path style="fill:#FFFFFF;" d="M962.889,380.046l5.28,1.893c2.676,0.96,4.068,3.907,3.108,6.583
				c-0.959,2.676-3.907,4.068-6.583,3.109l-0.015-0.005l-5.227-1.857l-0.029-0.01c-2.683-0.953-4.085-3.901-3.132-6.584
				c0.953-2.683,3.901-4.085,6.584-3.132L962.889,380.046z"/>
			<path style="fill:#FFFFFF;" d="M980.452,386.479l5.237,1.993c2.644,1.006,3.971,3.965,2.965,6.608
				c-1.006,2.644-3.965,3.971-6.609,2.965l-0.014-0.005l-5.188-1.958l-0.027-0.01c-2.651-1-3.988-3.96-2.988-6.61
				c1-2.65,3.96-3.988,6.61-2.988L980.452,386.479z"/>
			<path style="fill:#FFFFFF;" d="M997.882,393.245l5.205,2.094c2.611,1.05,3.876,4.018,2.826,6.629
				c-1.05,2.611-4.018,3.876-6.629,2.826l-0.013-0.005l-5.159-2.059l-0.026-0.011c-2.618-1.045-3.893-4.014-2.849-6.631
				c1.045-2.618,4.014-3.893,6.631-2.848L997.882,393.245z"/>
			<path style="fill:#FFFFFF;" d="M1015.187,400.336l5.165,2.188c2.578,1.092,3.783,4.067,2.69,6.645
				c-1.092,2.578-4.067,3.782-6.646,2.69l-0.012-0.005l-5.121-2.153l-0.025-0.011c-2.585-1.087-3.8-4.063-2.713-6.648
				c1.087-2.585,4.063-3.8,6.648-2.713L1015.187,400.336z"/>
			<path style="fill:#FFFFFF;" d="M1032.358,407.737l5.125,2.279c2.545,1.131,3.691,4.112,2.56,6.657
				c-1.132,2.545-4.112,3.691-6.657,2.56l-0.011-0.005l-5.083-2.243l-0.024-0.011c-2.552-1.126-3.708-4.108-2.582-6.661
				c1.126-2.552,4.108-3.708,6.661-2.582L1032.358,407.737z"/>
			<path style="fill:#FFFFFF;" d="M1049.395,415.434l5.085,2.365c2.513,1.169,3.602,4.153,2.433,6.665
				c-1.169,2.513-4.153,3.602-6.665,2.433l-0.01-0.004l-5.046-2.33l-0.023-0.01c-2.52-1.163-3.619-4.149-2.456-6.669
				c1.163-2.52,4.149-3.619,6.669-2.456L1049.395,415.434z"/>
			<path style="fill:#FFFFFF;" d="M1066.296,423.415l5.044,2.448c2.48,1.203,3.515,4.189,2.312,6.669s-4.189,3.515-6.67,2.311
				l-0.009-0.004l-5.008-2.412l-0.022-0.01c-2.487-1.198-3.532-4.186-2.334-6.674c1.198-2.487,4.186-3.532,6.673-2.334
				L1066.296,423.415z"/>
			<path style="fill:#FFFFFF;" d="M1083.063,431.666l5.004,2.526c2.448,1.236,3.431,4.222,2.195,6.67
				c-1.236,2.448-4.222,3.431-6.67,2.195l-0.008-0.004l-4.97-2.492l-0.021-0.01c-2.455-1.231-3.448-4.219-2.217-6.675
				c1.231-2.455,4.219-3.448,6.675-2.217L1083.063,431.666z"/>
			<path style="fill:#FFFFFF;" d="M1099.684,440.201l4.948,2.612c2.39,1.262,3.305,4.222,2.043,6.612
				c-1.254,2.376-4.188,3.294-6.571,2.064l-0.022-0.011l-4.932-2.548l-0.019-0.01c-2.413-1.247-3.359-4.214-2.112-6.627
				c1.247-2.413,4.214-3.359,6.627-2.112L1099.684,440.201z"/>
			<path style="fill:#FFFFFF;" d="M1116.15,449.001l4.91,2.684c2.331,1.274,3.188,4.197,1.914,6.529
				c-1.267,2.318-4.164,3.179-6.489,1.935l-0.02-0.011l-4.897-2.621l-0.018-0.01c-2.355-1.26-3.242-4.19-1.982-6.545
				c1.26-2.355,4.191-3.242,6.545-1.982L1116.15,449.001z"/>
			<path style="fill:#FFFFFF;" d="M1132.487,458.036l4.873,2.752c2.274,1.284,3.076,4.169,1.792,6.443
				c-1.277,2.261-4.136,3.067-6.404,1.813l-0.019-0.011l-4.863-2.69l-0.017-0.009c-2.297-1.271-3.129-4.163-1.858-6.46
				c1.271-2.297,4.163-3.129,6.46-1.859L1132.487,458.036z"/>
			<path style="fill:#FFFFFF;" d="M1148.697,467.292l4.837,2.817c2.217,1.292,2.968,4.136,1.676,6.353
				c-1.284,2.205-4.104,2.959-6.315,1.698l-0.018-0.01l-4.83-2.756l-0.016-0.009c-2.24-1.279-3.02-4.131-1.742-6.372
				c1.279-2.241,4.131-3.02,6.372-1.742L1148.697,467.292z"/>
			<path style="fill:#FFFFFF;" d="M1164.777,476.756l4.801,2.879c2.161,1.296,2.863,4.099,1.567,6.261
				c-1.289,2.149-4.067,2.855-6.224,1.589l-0.017-0.01l-4.797-2.819l-0.015-0.009c-2.185-1.284-2.915-4.096-1.631-6.28
				c1.284-2.185,4.096-2.915,6.281-1.631L1164.777,476.756z"/>
			<path style="fill:#FFFFFF;" d="M1180.741,486.421l4.766,2.937c2.107,1.298,2.763,4.059,1.464,6.166
				c-1.291,2.095-4.028,2.755-6.13,1.486l-0.016-0.01l-4.765-2.878l-0.014-0.008c-2.13-1.287-2.814-4.057-1.527-6.187
				c1.287-2.13,4.057-2.814,6.187-1.527L1180.741,486.421z"/>
			<path style="fill:#FFFFFF;" d="M1196.589,496.277l4.733,2.992c2.053,1.298,2.666,4.015,1.367,6.069
				c-1.291,2.042-3.985,2.658-6.034,1.389l-0.015-0.009l-4.734-2.935l-0.013-0.008c-2.076-1.287-2.716-4.014-1.429-6.09
				c1.287-2.076,4.014-2.716,6.09-1.429L1196.589,496.277z"/>
			<path style="fill:#FFFFFF;" d="M1212.326,506.311l4.7,3.044c2.001,1.296,2.572,3.968,1.276,5.969
				c-1.289,1.99-3.938,2.566-5.935,1.298l-0.013-0.008l-4.703-2.987l-0.012-0.008c-2.024-1.286-2.622-3.968-1.337-5.992
				c1.285-2.024,3.968-2.622,5.992-1.337L1212.326,506.311z"/>
			<path style="fill:#FFFFFF;" d="M1227.954,516.515l4.668,3.092c1.949,1.291,2.483,3.919,1.191,5.868
				c-1.284,1.938-3.889,2.477-5.835,1.213l-0.013-0.008l-4.673-3.037l-0.011-0.007c-1.972-1.282-2.532-3.919-1.25-5.892
				c1.281-1.972,3.919-2.532,5.891-1.25L1227.954,516.515z"/>
			<path style="fill:#FFFFFF;" d="M1243.476,526.875l4.636,3.137c1.899,1.285,2.397,3.866,1.112,5.765
				c-1.278,1.888-3.837,2.391-5.732,1.133l-0.012-0.008l-4.645-3.083l-0.01-0.007c-1.922-1.276-2.445-3.867-1.17-5.789
				c1.276-1.922,3.868-2.445,5.789-1.17L1243.476,526.875z"/>
			<path style="fill:#FFFFFF;" d="M1258.895,537.383l4.606,3.179c1.849,1.277,2.314,3.811,1.037,5.66
				c-1.269,1.839-3.782,2.309-5.629,1.059l-0.011-0.007l-4.616-3.126l-0.009-0.006c-1.872-1.268-2.362-3.813-1.094-5.685
				c1.268-1.872,3.813-2.362,5.685-1.094L1258.895,537.383z"/>
			<path style="fill:#FFFFFF;" d="M1274.215,548.026l4.577,3.218c1.801,1.266,2.234,3.753,0.968,5.554
				c-1.259,1.791-3.725,2.229-5.523,0.99l-0.01-0.007l-4.589-3.166l-0.008-0.006c-1.823-1.258-2.282-3.756-1.024-5.58
				c1.258-1.824,3.756-2.282,5.58-1.024L1274.215,548.026z"/>
			<path style="fill:#FFFFFF;" d="M1289.437,558.795l4.549,3.254c1.754,1.254,2.158,3.693,0.904,5.447
				c-1.247,1.744-3.675,2.148-5.426,0.919l-4.562-3.203c-1.779-1.242-2.214-3.692-0.971-5.471c1.243-1.779,3.692-2.214,5.471-0.971
				L1289.437,558.795z"/>
			<path style="fill:#FFFFFF;" d="M1304.572,569.68l4.523,3.279c1.709,1.239,2.09,3.628,0.852,5.337
				c-1.232,1.699-3.606,2.083-5.313,0.869l-4.546-3.234c-1.732-1.23-2.14-3.631-0.911-5.363c1.229-1.733,3.63-2.14,5.363-0.911
				L1304.572,569.68z"/>
			<path style="fill:#FFFFFF;" d="M1319.637,580.612l4.516,3.276c1.673,1.211,2.047,3.549,0.836,5.222
				c-1.204,1.663-3.527,2.039-5.197,0.853l-4.55-3.24c-1.693-1.206-2.089-3.556-0.883-5.249c1.206-1.693,3.556-2.089,5.249-0.883
				L1319.637,580.612z"/>
			<path style="fill:#FFFFFF;" d="M1334.702,591.507l4.529,3.248l0.008,0.006c1.641,1.177,2.018,3.461,0.841,5.103
				c-1.17,1.632-3.437,2.013-5.076,0.86l-4.573-3.218c-1.663-1.17-2.062-3.467-0.892-5.129c1.17-1.663,3.467-2.062,5.13-0.892
				L1334.702,591.507z"/>
			<path style="fill:#FFFFFF;" d="M1349.832,602.273l4.561,3.191l0.013,0.009c1.618,1.132,2.011,3.361,0.88,4.978
				c-1.125,1.608-3.337,2.006-4.952,0.898l-4.615-3.169c-1.639-1.125-2.055-3.366-0.93-5.004c1.125-1.639,3.366-2.055,5.004-0.93
				l0.026,0.018L1349.832,602.273z"/>
			<path style="fill:#FFFFFF;" d="M1365.091,612.82l4.612,3.107l0.018,0.013c1.599,1.077,2.022,3.248,0.945,4.847
				c-1.071,1.59-3.225,2.016-4.821,0.962l-4.675-3.091c-1.62-1.071-2.066-3.253-0.995-4.873c1.071-1.62,3.253-2.066,4.873-0.995
				l0.026,0.017L1365.091,612.82z"/>
			<path style="fill:#FFFFFF;" d="M1380.538,623.053l4.679,2.994l0.024,0.015c1.586,1.015,2.049,3.123,1.035,4.71
				c-1.009,1.577-3.101,2.043-4.684,1.051l-4.753-2.982c-1.607-1.008-2.092-3.128-1.084-4.734c1.008-1.607,3.128-2.092,4.734-1.084
				l0.026,0.016L1380.538,623.053z"/>
			<path style="fill:#FFFFFF;" d="M1396.213,632.899l4.762,2.867l0.029,0.017c1.551,0.934,2.051,2.948,1.118,4.499
				c-0.925,1.536-2.913,2.041-4.458,1.142l-4.861-2.831c-1.584-0.922-2.12-2.954-1.198-4.539c0.922-1.584,2.954-2.12,4.539-1.198
				c0.009,0.005,0.018,0.01,0.026,0.015L1396.213,632.899z"/>
			<path style="fill:#FFFFFF;" d="M1412.187,642.251l4.851,2.685l0.033,0.019c1.518,0.84,2.068,2.752,1.228,4.27
				c-0.832,1.504-2.719,2.056-4.23,1.25l-4.956-2.649c-1.55-0.829-2.135-2.757-1.307-4.308c0.829-1.55,2.757-2.135,4.308-1.307
				c0.009,0.005,0.017,0.009,0.026,0.014L1412.187,642.251z"/>
			<path style="fill:#FFFFFF;" d="M1428.481,650.962l4.952,2.47l0.038,0.019c1.486,0.741,2.09,2.546,1.349,4.031
				c-0.734,1.472-2.514,2.077-3.992,1.368l-5.063-2.433c-1.517-0.729-2.156-2.549-1.427-4.066c0.729-1.517,2.549-2.155,4.066-1.427
				c0.009,0.004,0.017,0.008,0.026,0.012L1428.481,650.962z"/>
			<path style="fill:#FFFFFF;" d="M1445.134,658.921l5.064,2.222l0.042,0.018c1.451,0.637,2.112,2.329,1.475,3.781
				c-0.631,1.438-2.3,2.098-3.742,1.492l-5.18-2.183c-1.482-0.624-2.177-2.331-1.552-3.813c0.624-1.482,2.331-2.177,3.813-1.552
				c0.008,0.003,0.016,0.007,0.025,0.01L1445.134,658.921z"/>
			<path style="fill:#FFFFFF;" d="M1462.158,666.011l5.184,1.941l0.049,0.018c1.414,0.53,2.131,2.105,1.602,3.519
				c-0.524,1.401-2.078,2.117-3.481,1.615l-5.307-1.899c-1.443-0.516-2.194-2.105-1.678-3.548c0.516-1.443,2.105-2.194,3.548-1.678
				c0.008,0.003,0.016,0.006,0.024,0.009L1462.158,666.011z"/>
			<path style="fill:#FFFFFF;" d="M1479.565,672.065l5.298,1.581l0.052,0.016c1.375,0.41,2.156,1.857,1.746,3.232
				c-0.406,1.362-1.832,2.141-3.196,1.757l-5.424-1.533c-1.403-0.396-2.218-1.854-1.822-3.257c0.396-1.402,1.854-2.218,3.257-1.821
				c0.008,0.002,0.016,0.005,0.023,0.007L1479.565,672.065z"/>
			<path style="fill:#FFFFFF;" d="M1497.346,676.904l5.396,1.208l0.051,0.012c1.327,0.297,2.161,1.613,1.865,2.94
				c-0.294,1.314-1.591,2.145-2.905,1.872l-5.517-1.15c-1.353-0.282-2.221-1.608-1.939-2.961c0.282-1.353,1.608-2.221,2.961-1.939
				c0.008,0.002,0.015,0.003,0.023,0.005L1497.346,676.904z"/>
			<path style="fill:#FFFFFF;" d="M1515.428,680.479l5.47,0.816l0.051,0.008c1.27,0.189,2.146,1.373,1.957,2.643
				c-0.188,1.258-1.353,2.13-2.609,1.962l-5.585-0.749c-1.295-0.174-2.205-1.365-2.031-2.66c0.174-1.295,1.365-2.205,2.661-2.031
				c0.007,0.001,0.014,0.002,0.022,0.003L1515.428,680.479z"/>
			<path style="fill:#FFFFFF;" d="M1533.725,682.717l5.516,0.398l0.052,0.004c1.206,0.087,2.113,1.135,2.026,2.341
				c-0.086,1.195-1.117,2.096-2.309,2.029l-5.625-0.323c-1.23-0.071-2.17-1.125-2.099-2.355c0.071-1.23,1.125-2.17,2.355-2.099
				c0.007,0,0.014,0.001,0.021,0.001L1533.725,682.717z"/>
			<path style="fill:#FFFFFF;" d="M1552.14,683.526l5.53-0.052l0.053,0c1.134-0.011,2.062,0.9,2.073,2.034
				c0.011,1.123-0.885,2.045-2.004,2.072l-5.634,0.136c-1.156,0.028-2.117-0.887-2.144-2.044c-0.028-1.156,0.887-2.116,2.044-2.144
				c0.006,0,0.013,0,0.019,0L1552.14,683.526z"/>
			<path style="fill:#FFFFFF;" d="M1570.555,682.794l5.503-0.539l0.053-0.005c1.054-0.103,1.992,0.668,2.095,1.721
				c0.102,1.044-0.655,1.974-1.694,2.092l-5.601,0.631c-1.075,0.121-2.044-0.652-2.165-1.727c-0.121-1.075,0.652-2.044,1.727-2.165
				c0.006-0.001,0.012-0.001,0.018-0.002L1570.555,682.794z"/>
			<path style="fill:#FFFFFF;" d="M1588.825,680.398l5.428-1.05l0.053-0.01c0.957-0.185,1.882,0.44,2.067,1.397
				c0.183,0.944-0.427,1.859-1.363,2.06l-5.512,1.179c-0.983,0.21-1.95-0.416-2.16-1.399c-0.21-0.983,0.416-1.95,1.399-2.16
				c0.009-0.002,0.017-0.004,0.026-0.005L1588.825,680.398z"/>
			<path style="fill:#FFFFFF;" d="M1606.777,676.249l5.29-1.612l0.05-0.015c0.835-0.254,1.719,0.216,1.973,1.051
				c0.251,0.825-0.206,1.697-1.022,1.964l-5.357,1.749c-0.859,0.28-1.783-0.189-2.063-1.048c-0.281-0.859,0.189-1.783,1.048-2.063
				c0.008-0.003,0.015-0.005,0.023-0.007L1606.777,676.249z"/>
			<path style="fill:#FFFFFF;" d="M1624.183,670.192l5.075-2.202l0.046-0.02c0.708-0.307,1.531,0.018,1.839,0.726
				c0.303,0.699-0.011,1.511-0.701,1.827l-5.122,2.343c-0.73,0.334-1.592,0.013-1.926-0.717c-0.334-0.73-0.013-1.592,0.717-1.926
				c0.006-0.003,0.013-0.006,0.019-0.009L1624.183,670.192z"/>
			<path style="fill:#FFFFFF;" d="M1640.778,662.153l4.777-2.799l0.039-0.023c0.579-0.339,1.323-0.145,1.662,0.434
				c0.335,0.571,0.149,1.305-0.413,1.65l-4.8,2.941c-0.598,0.366-1.38,0.179-1.746-0.419c-0.366-0.598-0.179-1.38,0.419-1.746
				c0.005-0.003,0.01-0.006,0.016-0.01L1640.778,662.153z"/>
		</g>
	</g>
</g>
</svg>
